<ttFont>
          <CharString index="0">
            198 250 rmoveto
            94 46 44 54 29 27 -9 -24 27 vhcurveto
            -201 vlineto
            -33 -26 -28 -13 -33 hhcurveto
            -61 -35 44 98 hvcurveto
            -151 -2 rmoveto
            -162 84 -98 125 48 54 27 36 36 vhcurveto
            3 hlineto
            return
          </CharString>
          <CharString index="1">
            rmoveto
            15 60 17 65 18 76 16 69 rlinecurve
            4 hlineto
            17 -68 18 -77 17 -65 15 -60 rcurveline
            69 -270 rmoveto
            156 hlineto
            -203 652 rlineto
            -176 hlineto
            -203 -652 rlineto
            150 hlineto
            40 155 rlineto
            197 hlineto
            endchar
          </CharString>
          <CharString index="2">
            47 184 callgsubr
            122 -95 131 131 122 95 165 165 -122 95 -131 -131 -122 -95 -165 vhcurveto
            151 hmoveto
            86 34 55 68 68 34 -55 -86 -86 -34 -55 -68 -68 -34 55 86 vhcurveto
            return
          </CharString>
          <CharString index="3">
            64 251 rmoveto
            -169 79 -94 159 158 76 94 169 vhcurveto
            401 -142 -416 vlineto
            -78 -30 -43 -62 -62 -29 43 78 vhcurveto
            67 callsubr
            vlineto
            return
          </CharString>
          <CharString index="4">
            141 11 rmoveto
            43 40 31 146 8 vhcurveto
            -82 vlineto
            -27 -35 -38 -20 -44 hhcurveto
            -42 -27 15 32 hvcurveto
            return
          </CharString>
          <CharString index="5">
            44 322 rmoveto
            -219 132 -115 167 83 77 38 41 44 vhcurveto
            300 -227 -120 95 -112 vlineto
            -13 -14 -25 -7 -25 hhcurveto
            -103 -52 78 134 131 64 79 85 52 30 -19 -28 28 hvcurveto
            81 91 rlineto
            42 -42 -61 41 -88 hhcurveto
            -169 -132 -124 -218 hvcurveto
            return
          </CharString>
          <CharString index="6">
            -99 callgsubr
            hintmask 1111010010100000
            -91 callgsubr
            hintmask 1110110100100000
            8 -24 -28 4 -30 hhcurveto
            -112 -100 -61 -119 -58 29 -45 36 -24 hvcurveto
            -4 vlineto
            hintmask 1111010010100000
            -35 -24 -24 -36 -33 vvcurveto
            -42 23 -26 27 -17 vhcurveto
            -4 vlineto
            return
          </CharString>
          <CharString index="7">
            226 hmoveto
            148 220 hlineto
            210 432 168 callgsubr
            -66 -157 -20 -50 -20 -47 -21 -52 rlinecurve
            -4 hlineto
            -20 52 -20 47 -19 50 -66 157 rcurveline
            -158 hlineto
            210 -432 rlineto
            return
          </CharString>
          <CharString index="8">
            57 41 35 54 54 -41 38 -57 -95 callgsubr
            return
          </CharString>
          <CharString index="9">
            vstem
            91 hmoveto
            151 hlineto
            39 205 8 41 6 45 4 39 rlinecurve
            3 hlineto
            3 -39 7 -45 8 -41 41 -205 rcurveline
            154 hlineto
            81 652 rlineto
            -140 hlineto
            -19 -347 -2 -54 -1 -56 -2 -56 rlinecurve
            -4 hlineto
            -10 56 -14 57 -10 53 -43 181 rcurveline
            -89 hlineto
            -45 -181 -11 -55 -14 -56 -10 -55 rlinecurve
            -3 hlineto
            -1 55 -2 55 -1 56 -21 347 rcurveline
            -150 hlineto
            return
          </CharString>
          <CharString index="10">
            rmoveto
            103 callgsubr
          </CharString>
          <CharString index="11">
            -12 -51 rlineto
            -4 hlineto
            42 -38 -45 21 -52 hhcurveto
            -114 -101 -99 -152 -143 84 -101 125 47 53 20 32 33 hvcurveto
            -3 -64 rlineto
            -47 -5 -38 -35 -73 hhcurveto
            return
          </CharString>
          <CharString index="12">
            174 206 rmoveto
            -130 56 -88 158 64 54 14 13 44 vhcurveto
            -26 106 rlineto
            -10 -29 -32 -8 -38 hhcurveto
            -72 -32 29 75 hvcurveto
            174 210 115 -210 132 -121 vlineto
            -19 -132 -132 -6 rlineto
            -109 125 vlineto
            return
          </CharString>
          <CharString index="13">
            vstem
            55 322 rmoveto
            -219 140 -115 168 82 70 33 63 54 vhcurveto
            -81 89 rlineto
            -35 -32 -37 -23 -47 hhcurveto
            -98 -68 78 134 131 68 79 92 47 34 -19 -28 31 hvcurveto
            81 91 rlineto
            43 -44 -66 40 -83 hhcurveto
            -174 -137 -126 -216 hvcurveto
            return
          </CharString>
          <CharString index="14">
            62 585 rmoveto
            144 -391 hlineto
            -126 64 -80 125 62 35 11 16 52 vhcurveto
            -33 108 rlineto
            -12 -31 -24 -4 -23 hhcurveto
            -41 -39 20 61 hvcurveto
            513 -291 vlineto
            return
          </CharString>
          <CharString index="15">
            331 vlineto
            34 35 26 18 40 hhcurveto
            54 19 -30 -66 hvcurveto
            -287 147 306 vlineto
            125 -50 77 -112 -74 -54 -36 -42 -43 vhcurveto
            -4 hlineto
            return
          </CharString>
          <CharString index="16">
            67 184 callgsubr
            120 -95 156 68 77 23 50 60 vhcurveto
            -60 93 rlineto
            -25 -35 -44 -22 -52 hhcurveto
            -82 -57 55 86 86 59 55 85 37 35 -12 -27 38 hvcurveto
            68 91 rlineto
            39 -42 -66 28 -78 hhcurveto
            -153 -134 -95 -165 hvcurveto
            return
          </CharString>
          <CharString index="17">
            147 hintmask 11011101
            -87 callsubr
            hintmask 11101101
            -96 callsubr
            hintmask 11011101
            -41 -55 11 26 -47 hvcurveto
            167 175 rmoveto
            -58 -40 46 82 hvcurveto
            hintmask 11101101
            83 50 46 50 31 27 -9 -24 27 vhcurveto
            -176 vlineto
            hintmask 11011101
            -35 -27 -28 -13 -32 hhcurveto
            return
          </CharString>
          <CharString index="18">
            rmoveto
            15 10 16 16 8 vhcurveto
            31 -9 23 -11 -21 vvcurveto
            -17 -17 -12 -23 -23 -17 12 19 vhcurveto
            hintmask 11011000
            53 107 rmoveto
            -27 9 -17 9 18 vvcurveto
            14 13 10 17 20 13 -12 -16 -12 -6 -12 -13 -8 vhcurveto
            hintmask 11100100
            -147 -115 rmoveto
            -50 55 -41 79 79 55 42 49 48 -26 19 -35 18 vhcurveto
            4 vlineto
            hintmask 11011000
            30 14 23 17 34 vvcurveto
            55 -55 36 -71 -68 -57 -36 -55 -40 22 -13 30 -20 vhcurveto
            -4 vlineto
            hintmask 11100100
            -30 -16 -31 -19 -42 vvcurveto
            endchar
          </CharString>
          <CharString index="19">
            231 138 return
          </CharString>
          <CharString index="20">
            127 -44 rmoveto
            -49 -100 rlineto
            -37 58 79 -15 55 hhcurveto
            169 89 78 134 hvcurveto
            480 -115 vlineto
            return
          </CharString>
          <CharString index="21">
            155 487 rmoveto
            8 -11 8 -17 -18 vvcurveto
            -41 -26 -13 -40 -8 vhcurveto
            15 -33 -36 7 -36 hhcurveto
            -131 -122 -95 -165 -165 122 -95 131 hvcurveto
            return
          </CharString>
          <CharString index="22">
            11 -51 rlineto
            120 496 -115 hlineto
            return
          </CharString>
          <CharString index="23">
            114 -81 -21 231 88 72 117 return
          </CharString>
          <CharString index="24">
            -12 -72 callsubr
            return
          </CharString>
          <CharString index="25">
            hstem
            -88 callsubr
            vstem
            return
          </CharString>
          <CharString index="26">
            96 callgsubr
            113 hlineto
            -96 120 rlineto
            -144 hlineto
            -96 -120 rlineto
            return
          </CharString>
          <CharString index="27">
            rmoveto
            13 callgsubr
            -46 -33 -34 -44 -45 33 -34 46 hvcurveto
            218 hmoveto
            46 33 34 45 44 -33 34 -46 -46 -32 -34 -44 -45 32 -34 46 hvcurveto
            endchar
          </CharString>
          <CharString index="28">
            -35 callsubr
            95 123 43 111 hstemhm
            62 147 -74 123 75 123 -78 -78 callgsubr
            return
          </CharString>
          <CharString index="29">
            hvcurveto
            13 -391 -92 callgsubr
            hintmask 1000000100100000
            -195 -464 rmoveto
            15 11 16 15 8 vhcurveto
            31 -9 24 -11 -21 vvcurveto
            -17 -18 -12 -23 -22 -18 12 19 vhcurveto
            hintmask 0100000011000000
            53 107 rmoveto
            -27 9 -17 9 18 vvcurveto
            14 13 10 18 19 13 -12 -16 -12 -6 -12 -13 -8 vhcurveto
            hintmask 1000000100100000
            -147 -115 rmoveto
            -50 55 -41 79 79 56 42 49 48 -27 19 -35 18 vhcurveto
            4 vlineto
            hintmask 0100000011000000
            30 14 23 17 34 vvcurveto
            55 -54 36 -72 -68 -57 -36 -55 -40 23 -13 29 -20 vhcurveto
            -4 vlineto
            hintmask 1000000100100000
            -30 -16 -31 -19 -42 vvcurveto
            endchar
          </CharString>
          <CharString index="30">
            rmoveto
            104 hlineto
            52 39 callgsubr
            -126 hlineto
            return
          </CharString>
          <CharString index="31">
            79 381 rmoveto
            199 -381 147 496 -346 hlineto
            return
          </CharString>
          <CharString index="32">
            rmoveto
            -96 callgsubr
            57 41 35 54 54 -41 38 -57 hvcurveto
            -71 342 rmoveto
            15 60 17 65 18 76 16 69 rlinecurve
            4 hlineto
            17 -68 18 -77 17 -65 15 -60 rcurveline
            22 382 rmoveto
            18 callgsubr
            156 hlineto
            endchar
          </CharString>
          <CharString index="33">
            -92 callgsubr
            -195 -464 rmoveto
            15 11 16 15 8 vhcurveto
            31 -9 24 -11 -21 vvcurveto
            -17 -18 -12 -23 -22 -18 12 19 vhcurveto
            hintmask 0100001100000000
            53 107 rmoveto
            -27 9 -17 9 18 vvcurveto
            14 13 10 18 19 13 -12 -16 -12 -6 -12 -13 -8 vhcurveto
            hintmask 1000010010000000
            -147 -115 rmoveto
            -50 55 -41 79 79 56 42 49 48 -27 19 -35 18 vhcurveto
            4 vlineto
            hintmask 0100001100000000
            30 14 23 17 34 vvcurveto
            55 -54 36 -72 -68 -57 -36 -55 -40 23 -13 29 -20 vhcurveto
            -4 vlineto
            hintmask 1000010010000000
            -30 -16 -31 -19 -42 vvcurveto
            endchar
          </CharString>
          <CharString index="34">
            -47 callgsubr
            -56 -41 -38 -54 -54 41 -35 56 hvcurveto
            endchar
          </CharString>
          <CharString index="35">
            -70 callsubr
            -12 -20 return
          </CharString>
          <CharString index="36">
            -52 callsubr
            235 77 hlineto
            125 -235 rlineto
            return
          </CharString>
          <CharString index="37">
            120 -87 -30 callgsubr
            return
          </CharString>
          <CharString index="38">
            127 422 127 return
          </CharString>
          <CharString index="39">
            -50 callsubr
            98 167 hstemhm
            47 149 185 147 hintmask 11011110
            -87 callsubr
            hintmask 11101110
            -96 callsubr
            hintmask 11011110
            -41 -55 11 26 -47 hvcurveto
            167 175 rmoveto
            -58 -40 46 82 hvcurveto
            hintmask 11101110
            83 50 46 50 31 27 -9 -24 27 vhcurveto
            -176 vlineto
            hintmask 11011110
            -35 -27 -28 -13 -32 hhcurveto
            return
          </CharString>
          <CharString index="40">
            72 hmoveto
            147 331 hlineto
            34 35 26 18 40 hhcurveto
            54 19 -30 -66 hvcurveto
            -287 147 306 vlineto
            125 -50 77 -111 -75 -54 -36 -38 -39 vhcurveto
            8 95 rlineto
            172 -147 vlineto
            return
          </CharString>
          <CharString index="41">
            -33 -7 -14 -12 -17 -31 -35 45 -54 hhcurveto
            -52 -45 -45 -91 -10 hvcurveto
            75 hlineto
            33 7 14 12 17 return
          </CharString>
          <CharString index="42">
            -8 14 41 callsubr
            -51 callgsubr
            return
          </CharString>
          <CharString index="43">
            65 hmoveto
            185 hlineto
            181 125 105 224 224 -125 99 -189 hvcurveto
            -177 hlineto
            148 -533 rmoveto
            414 21 vlineto
            102 69 -48 -156 -156 -69 -54 -102 hvcurveto
            return
          </CharString>
          <CharString index="44">
            -112 -103 -98 -162 hvcurveto
            return
          </CharString>
          <CharString index="45">
            119 282 119 return
          </CharString>
          <CharString index="46">
            rmoveto
            99 46 75 81 2 hvcurveto
            -82 hlineto
            -42 -5 -20 -33 -40 hhcurveto
            -40 -2 callgsubr
            return
          </CharString>
          <CharString index="47">
            rmoveto
            -156 hlineto
            -81 137 callsubr
            return
          </CharString>
          <CharString index="48">
            rmoveto
            -150 -25 callsubr
            return
          </CharString>
          <CharString index="49">
            vvcurveto
            33 -14 143 callsubr
          </CharString>
          <CharString index="50">
            56 hmoveto
            491 124 -309 hlineto
            305 439 rlineto
            89 -458 -123 277 vlineto
            -306 -440 rlineto
            return
          </CharString>
          <CharString index="51">
            rmoveto
            7 -12 8 -16 -18 vvcurveto
            -52 -42 -8 -40 -2 vhcurveto
            hintmask 11110100
            -84 callgsubr
            return
          </CharString>
          <CharString index="52">
            -253 181 return
          </CharString>
          <CharString index="53">
            -28 callgsubr
            hintmask 1011110110000000
            -103 callsubr
            return
          </CharString>
          <CharString index="54">
            -34 callgsubr
            83 30 68 vvcurveto
            50 -32 165 callsubr
          </CharString>
          <CharString index="55">
            69 31 47 61 96 vvcurveto
            155 -114 48 -138 vhcurveto
            -231 -652 147 return
          </CharString>
          <CharString index="56">
            36 26 27 35 34 -26 27 -36 return
          </CharString>
          <CharString index="57">
            -196 115 94 118 257 120 -12 -20 return
          </CharString>
          <CharString index="58">
            74 callsubr
            78 167 -39 callgsubr
            return
          </CharString>
          <CharString index="59">
            -35 callgsubr
            126 callgsubr
            return
          </CharString>
          <CharString index="60">
            -41 -29 -30 -40 -40 29 -30 41 hvcurveto
            return
          </CharString>
          <CharString index="61">
            147 hintmask 10111101
            47 248 rmoveto
            hintmask 11011101
            -162 83 -98 126 50 51 27 36 37 vhcurveto
            3 hlineto
            hintmask 10111101
            11 -51 rlineto
            120 701 -147 -169 hlineto
            5 -77 rlineto
            32 -35 -35 21 -57 hhcurveto
            -108 -104 -98 -162 hvcurveto
            hintmask 11011101
            151 2 rmoveto
            94 46 44 54 29 27 -9 -24 27 vhcurveto
            -201 vlineto
            -33 -26 -28 -13 -33 hhcurveto
            -61 -35 44 98 hvcurveto
            return
          </CharString>
          <CharString index="62">
            -12 -84 callsubr
            66 return
          </CharString>
          <CharString index="63">
            -12 127 537 -20 return
          </CharString>
          <CharString index="64">
            rlineto
            112 hlineto
            -96 120 rlineto
            -143 hlineto
            -96 -120 rlineto
            return
          </CharString>
          <CharString index="65">
            -211 92 100 112 64 89 143 107 -87 99 return
          </CharString>
          <CharString index="66">
            107 hmoveto
            437 124 -290 528 -147 hlineto
            return
          </CharString>
          <CharString index="67">
            79 381 rmoveto
            199 -357 hlineto
            -72 -21 -33 -71 -29 -32 6 18 -40 vhcurveto
            -43 -105 rlineto
            -20 43 49 -14 61 hhcurveto
            180 50 105 121 hvcurveto
            466 -346 vlineto
            return
          </CharString>
          <CharString index="68">
            61 rlineto
            -112 hlineto
            96 -120 rlineto
            143 hlineto
            96 120 rlineto
            endchar
          </CharString>
          <CharString index="69">
            rmoveto
            85 63 66 104 103 -63 63 -85 -85 -63 -63 -103 -104 63 -66 85 hvcurveto
            79 vmoveto
            -25 -23 23 68 68 23 19 25 25 23 -19 -68 -68 -23 -23 -25 hvcurveto
            endchar
          </CharString>
          <CharString index="70">
            rmoveto
            -51 callsubr
            -6 callsubr
            -40 callgsubr
            return
          </CharString>
          <CharString index="71">
            -65 callsubr
            82 30 68 vvcurveto
            return
          </CharString>
          <CharString index="72">
            -12 -33 callgsubr
            return
          </CharString>
          <CharString index="73">
            -107 callgsubr
            hintmask 11111000
            return
          </CharString>
          <CharString index="74">
            21 -21 379 129 -20 20 -12 155 callgsubr
            hstemhm
            116 147 hintmask 10101100
            41 callgsubr
            hintmask 11001100
            -14 callsubr
            hintmask 10101100
            -55 callgsubr
            hintmask 10011100
            -12 108 120 callgsubr
            return
          </CharString>
          <CharString index="75">
            64 hmoveto
            147 272 178 -272 147 652 -147 -251 -178 251 -147 hlineto
            return
          </CharString>
          <CharString index="76">
            40 callgsubr
            -69 369 rmoveto
            300 -138 -300 -137 return
          </CharString>
          <CharString index="77">
            -72 rmoveto
            -96 callgsubr
            57 41 35 54 54 -41 38 -57 hvcurveto
            return
          </CharString>
          <CharString index="78">
            rmoveto
            -18 -22 10 35 -8 hvcurveto
            12 15 16 6 15 hhcurveto
            24 13 -11 -20 -20 -13 -12 -22 hvcurveto
            127 216 rmoveto
            24 -29 -36 17 -44 hhcurveto
            -107 -57 -79 -90 -98 56 -69 94 72 53 50 62 61 -39 33 -60 -32 -26 -10 -18 -21 hvcurveto
            44 5 19 35 51 hhcurveto
            24 19 -9 -14 17 hvcurveto
            endchar
          </CharString>
          <CharString index="79">
            58 rmoveto
            7 -12 8 -16 -18 vvcurveto
            -52 -42 -8 -40 -2 vhcurveto
            hintmask 11111000
            -84 callgsubr
            hintmask 11111100
            70 13 54 38 75 -58 callsubr
          </CharString>
          <CharString index="80">
            hstemhm
            62 147 169 147 return
          </CharString>
          <CharString index="81">
            65 hmoveto
            117 213 hlineto
            71 -12 154 -7 70 vhcurveto
            4 hlineto
            49 -179 50 -155 rlineto
            65 hlineto
            50 155 51 179 rlineto
            3 hlineto
            -7 -70 -12 -154 -71 vvcurveto
            -213 119 652 -147 vlineto
            -63 -231 -22 -90 rlineto
            -3 hlineto
            -22 90 -66 231 rlineto
            -147 hlineto
            return
          </CharString>
          <CharString index="82">
            hlineto
            -89 -167 rlineto
            107 hlineto
            return
          </CharString>
          <CharString index="83">
            -12 -9 callgsubr
            return
          </CharString>
          <CharString index="84">
            -11 callsubr
            11 27 return
          </CharString>
          <CharString index="85">
            184 -163 -21 467 185 0 -20 return
          </CharString>
          <CharString index="86">
            -88 callsubr
            hstem
            return
          </CharString>
          <CharString index="87">
            -300 hlineto
            endchar
          </CharString>
          <CharString index="88">
            335 vlineto
            32 14 12 16 19 hhcurveto
            19 10 -15 -31 hvcurveto
            -337 113 335 vlineto
            32 13 14 16 19 hhcurveto
            20 8 -15 -31 hvcurveto
            -337 138 348 vlineto
            99 -41 61 -69 -56 -35 -36 -45 -18 vhcurveto
            53 -12 -31 28 -44 hhcurveto
            -57 -30 -33 -41 -19 hvcurveto
            -4 hlineto
            return
          </CharString>
          <CharString index="89">
            rmoveto
            -106 40 -75 68 -74 vhcurveto
            79 48 rlineto
            -54 63 -29 70 74 vvcurveto
            73 29 70 54 63 vhcurveto
            -79 48 rlineto
            -68 -74 -40 -75 -105 vvcurveto
            endchar
          </CharString>
          <CharString index="90">
            rmoveto
            276 93 -276 hlineto
            endchar
          </CharString>
          <CharString index="91">
            71 callgsubr
            -69 163 rmoveto
            return
          </CharString>
          <CharString index="92">
            155 107 128 213 109 -29 86 -48 57 hvcurveto
            return
          </CharString>
          <CharString index="93">
            89 42 64 32 61 hhcurveto
            37 20 -5 -9 31 hvcurveto
            return
          </CharString>
          <CharString index="94">
            hstem
            -83 callgsubr
            vstem
            return
          </CharString>
          <CharString index="95">
            252 82 180 83 hstem
            133 106 122 106 vstem
            133 424 rmoveto
            -109 79 -63 88 88 79 63 109 109 -79 64 -88 -88 -79 -64 -109 vhcurveto
            106 hmoveto
            55 19 35 42 43 18 -35 -55 -54 -18 -36 -43 -42 -19 36 54 vhcurveto
            endchar
          </CharString>
          <CharString index="96">
            43 callsubr
            -31 66 rlineto
            -6 -9 -13 -6 -13 hhcurveto
            -21 -21 return
          </CharString>
          <CharString index="97">
            hstem
            0 600 75 callgsubr
            return
          </CharString>
          <CharString index="98">
            131 122 95 165 81 -29 64 -45 44 hvcurveto
            return
          </CharString>
          <CharString index="99">
            13 callsubr
            -400 rmoveto
            274 return
          </CharString>
          <CharString index="100">
            290 192 -192 407 hstemhm
            184 101 hintmask 01100000
            359 174 callsubr
            hintmask 10100000
            -31 callgsubr
            endchar
          </CharString>
          <CharString index="101">
            -40 callgsubr
            198 hmoveto
            -51 callsubr
            return
          </CharString>
          <CharString index="102">
            rmoveto
            116 53 58 85 109 vvcurveto
            33 callsubr
            return
          </CharString>
          <CharString index="103">
            rmoveto
            104 hlineto
            53 39 callgsubr
            -127 hlineto
            return
          </CharString>
          <CharString index="104">
            81 callgsubr
            186 147 return
          </CharString>
          <CharString index="105">
            548 55 94 55 hstem
            187 72 82 72 vstem
            300 548 rmoveto
            67 46 40 62 62 -46 40 -67 -67 -46 -40 -62 -62 46 -40 67 176 callsubr
            23 18 -19 -28 -28 -18 -19 -23 hvcurveto
            endchar
          </CharString>
          <CharString index="106">
            -47 callgsubr
            -56 -42 -38 -54 -54 42 -35 56 hvcurveto
            endchar
          </CharString>
          <CharString index="107">
            60 callgsubr
            -65 hlineto
            -37 -6 -23 -30 -45 hhcurveto
            -45 return
          </CharString>
          <CharString index="108">
            rmoveto
            117 hlineto
            -81 120 rlineto
            -156 hlineto
            endchar
          </CharString>
          <CharString index="109">
            rlineto
            4 hlineto
            return
          </CharString>
          <CharString index="110">
            rmoveto
            hintmask 11110101
            24 callgsubr
            hintmask 11111001
            -6 callsubr
            hvcurveto
            hintmask 11111010
            -36 -26 -27 -34 hvcurveto
            hintmask 11111001
            -35 26 -27 36 vhcurveto
            return
          </CharString>
          <CharString index="111">
            rmoveto
            89 120 rlineto
            -125 hlineto
            -63 -120 rlineto
            179 hmoveto
            99 hlineto
            90 120 rlineto
            -125 hlineto
            endchar
          </CharString>
          <CharString index="112">
            47 -65 rlineto
            90 hlineto
            -81 128 rlineto
            -116 hlineto
            return
          </CharString>
          <CharString index="113">
            rmoveto
            90 hlineto
            95 151 156 callgsubr
            102 -151 rmoveto
            91 hlineto
            95 151 156 callgsubr
            endchar
          </CharString>
          <CharString index="114">
            30 -23 callgsubr
            return
          </CharString>
          <CharString index="115">
            148 callgsubr
            -206 138 return
          </CharString>
          <CharString index="116">
            -14 callgsubr
            -20 -7 -24 -4 vhcurveto
            return
          </CharString>
          <CharString index="117">
            rmoveto
            107 hlineto
            -89 167 rlineto
            -150 hlineto
            endchar
          </CharString>
          <CharString index="118">
            66 38 16 91 61 hstem
            289 94 vstem
            268 806 rmoveto
            64 5 51 23 59 vvcurveto
            44 -37 33 -109 4 vhcurveto
            -14 -61 rlineto
            50 -4 16 -10 -19 vvcurveto
            -17 -14 -6 -19 -4 vhcurveto
            return
          </CharString>
          <CharString index="119">
            66 26 callgsubr
            return
          </CharString>
          <CharString index="120">
            -13 callsubr
            163 return
          </CharString>
          <CharString index="121">
            64 126 callsubr
            142 return
          </CharString>
          <CharString index="122">
            rmoveto
            93 43 56 63 3 hvcurveto
            -69 hlineto
            -26 -6 -19 -24 -45 hhcurveto
            -45 -19 24 26 -6 hvcurveto
            -69 hlineto
            -63 3 43 -56 93 hhcurveto
            -146 146 rmoveto
            64 hlineto
            116 callsubr
            return
          </CharString>
          <CharString index="123">
            vstem
            76 hmoveto
            147 125 hlineto
            73 77 130 -202 rlineto
            159 hlineto
            -203 292 188 204 rlineto
            -161 hlineto
            -182 -200 rlineto
            -4 405 -147 hlineto
            return
          </CharString>
          <CharString index="124">
            rmoveto
            62 -55 171 154 rlineto
            146 vlineto
            -171 154 -62 -55 127 -172 rlineto
            return
          </CharString>
          <CharString index="125">
            rmoveto
            123 181 callsubr
            -53 -96 rlineto
            -4 hlineto
            -54 144 callgsubr
          </CharString>
          <CharString index="126">
            34 -124 4 vhcurveto
            -17 -74 rlineto
            58 -3 22 -11 -19 vvcurveto
            -19 -20 -7 -25 -4 vhcurveto
            endchar
          </CharString>
          <CharString index="127">
            rmoveto
            62 55 -127 172 127 172 -62 55 -171 -154 rlineto
            -146 vlineto
            return
          </CharString>
          <CharString index="128">
            70 hstemhm
            166 94 -85 94 63 94 -86 94 hintmask 11100100
            260 return
          </CharString>
          <CharString index="129">
            741 -59 callsubr
            return
          </CharString>
          <CharString index="130">
            hmoveto
            -42 callgsubr
            return
          </CharString>
          <CharString index="131">
            80 callgsubr
            -12 -20 return
          </CharString>
          <CharString index="132">
            hstem
            226 148 vstem
            return
          </CharString>
          <CharString index="133">
            509 88 hstem
            156 104 105 104 vstem
            156 260 rmoveto
            104 219 hlineto
            19 21 15 11 24 hhcurveto
            33 12 -18 -41 hvcurveto
            -190 104 203 vlineto
            82 return
          </CharString>
          <CharString index="134">
            41 14 13 21 36 vvcurveto
            53 -53 36 -65 -55 -47 -18 -24 -31 vhcurveto
            43 -62 rlineto
            12 20 23 13 23 hhcurveto
            25 13 -11 -16 -24 -22 -8 -38 hvcurveto
            -55 vlineto
            return
          </CharString>
          <CharString index="135">
            278 104 hstem
            70 460 vstem
            70 278 rmoveto
            138 callsubr
            endchar
          </CharString>
          <CharString index="136">
            87 hstemhm
            177 264 -208 112 hintmask 10100000
            233 return
          </CharString>
          <CharString index="137">
            457 22 callsubr
            return
          </CharString>
          <CharString index="138">
            50 callgsubr
            0 return
          </CharString>
          <CharString index="139">
            -39 -9 -13 -13 -21 hhcurveto
            return
          </CharString>
          <CharString index="140">
            100 -42 60 -75 -55 -41 -40 -61 -55 38 -37 return
          </CharString>
          <CharString index="141">
            94 137 138 137 -49 callgsubr
            494 300 69 callgsubr
            return
          </CharString>
          <CharString index="142">
            181 callsubr
            -54 114 callgsubr
          </CharString>
          <CharString index="143">
            267 326 rmoveto
            98 46 38 callsubr
            91 callgsubr
            46 -75 99 hhcurveto
            return
          </CharString>
          <CharString index="144">
            rmoveto
            29 54 rlineto
            -30 7 -14 11 18 vvcurveto
            23 35 10 48 5 vhcurveto
            -11 59 rlineto
            -95 -5 -82 -31 -68 vvcurveto
            -50 31 -25 89 -8 vhcurveto
            endchar
          </CharString>
          <CharString index="145">
            75 81 3 hvcurveto
            -82 hlineto
            -42 -5 -20 -33 -40 hhcurveto
            -41 return
          </CharString>
          <CharString index="146">
            822 -60 callsubr
            return
          </CharString>
          <CharString index="147">
            hstem
            139 124 74 124 vstem
            return
          </CharString>
          <CharString index="148">
            -10 -19 vvcurveto
            -23 -35 -9 return
          </CharString>
          <CharString index="149">
            rmoveto
            90 hlineto
            35 237 5 145 rlineto
            -170 hlineto
            5 -145 rlineto
            return
          </CharString>
          <CharString index="150">
            -60 47 -31 59 31 44 13 20 26 vhcurveto
            return
          </CharString>
          <CharString index="151">
            66 hmoveto
            141 231 hlineto
            return
          </CharString>
          <CharString index="152">
            -103 callsubr
            -33 425 rmoveto
            91 hlineto
            return
          </CharString>
          <CharString index="153">
            107 312 182 callgsubr
            -7 rrcurveto
            -64 81 vlineto
            endchar
          </CharString>
          <CharString index="154">
            178 79 hstem
            152 100 96 100 vstem
            300 return
          </CharString>
          <CharString index="155">
            167 rlineto
            -124 hlineto
            return
          </CharString>
          <CharString index="156">
            rmoveto
            0 callsubr
            return
          </CharString>
          <CharString index="157">
            -31 66 rlineto
            -6 -11 -11 -6 -13 hhcurveto
            -22 -20 12 26 30 18 35 53 20 hvcurveto
            496 -346 -115 199 vlineto
            return
          </CharString>
          <CharString index="158">
            rmoveto
            107 hlineto
            -88 167 rlineto
            -151 hlineto
            endchar
          </CharString>
          <CharString index="159">
            108 -42 64 -82 -62 -50 -41 -62 -66 52 -36 56 4 3 0 1 4 vhcurveto
            -63 -43 -49 -87 -30 vhcurveto
            endchar
          </CharString>
          <CharString index="160">
            -22 callsubr
            hstemhm
            66 141 return
          </CharString>
          <CharString index="161">
            88 callsubr
            47 151 return
          </CharString>
          <CharString index="162">
            300 631 -137 -494 -163 hlineto
            return
          </CharString>
          <CharString index="163">
            -12 -50 callgsubr
            66 return
          </CharString>
          <CharString index="164">
            -21 235 117 183 117 return
          </CharString>
          <CharString index="165">
            75 60 callsubr
            return
          </CharString>
          <CharString index="166">
            563 232 274 return
          </CharString>
          <CharString index="167">
            5 64 30 68 vvcurveto
            54 return
          </CharString>
          <CharString index="168">
            hstemhm
            47 151 return
          </CharString>
          <CharString index="169">
            551 rmoveto
            -75 73 -162 -199 51 -48 rlineto
            -380 -276 rmoveto
            75 -73 162 199 -51 47 rlineto
            return
          </CharString>
          <CharString index="170">
            -109 66 -381 147 381 90 115 -90 30 vlineto
            51 21 20 36 16 19 -4 -6 16 vhcurveto
            return
          </CharString>
          <CharString index="171">
            rmoveto
            53 61 2 callsubr
            54 113 callgsubr
          </CharString>
          <CharString index="172">
            28 29 -53 50 hhcurveto
            return
          </CharString>
          <CharString index="173">
            -21 496 -20 return
          </CharString>
          <CharString index="174">
            416 -147 return
          </CharString>
          <CharString index="175">
            245 rmoveto
            -151 -25 callsubr
            endchar
          </CharString>
          <CharString index="176">
            129 hstem
            237 126 vstem
            237 return
          </CharString>
          <CharString index="177">
            55 vmoveto
            -23 -18 19 28 28 18 19 23 return
          </CharString>
          <CharString index="178">
            -138 -631 -20 callsubr
          </CharString>
          <CharString index="179">
            109 callgsubr
            endchar
          </CharString>
          <CharString index="180">
            -300 186 callgsubr
            return
          </CharString>
          <CharString index="181">
            21 110 callgsubr
            return
          </CharString>
          <CharString index="182">
            vstem
            -200 vmoveto
            return
          </CharString>
          <CharString index="183">
            rmoveto
            108 97 callgsubr
          </CharString>
          <CharString index="184">
            21 -81 callgsubr
            50 114 return
          </CharString>
          <CharString index="185">
            hstemhm
            -25 callgsubr
            return
          </CharString>
          <CharString index="186">
            38 36 78 9 hvcurveto
            -64 hlineto
            return
          </CharString>
          <CharString index="187">
            -53 -61 rlineto
            -4 hlineto
            return
          </CharString>
          <CharString index="188">
            -44 callsubr
            71 136 119 callsubr
            -81 75 189 142 -141 75 return
          </CharString>
          <CharString index="189">
            rmoveto
            107 hlineto
            53 95 2 callsubr
            54 149 callsubr
          </CharString>
          <CharString index="190">
            199 111 hstem
            20 560 vstem
            20 199 rmoveto
            560 111 -560 hlineto
            endchar
          </CharString>
          <CharString index="191">
            hintmask 10100000
            -69 163 rmoveto
            59 callgsubr
            hlineto
            hintmask 01100000
            117 callgsubr
            return
          </CharString>
          <CharString index="192">
            300 -30 callsubr
            return
          </CharString>
          <CharString index="193">
            hstemhm
            172 261 -114 103 hintmask 10100000
            172 return
          </CharString>
          <CharString index="194">
            67.5 -67.5 71 -71 return
          </CharString>
          <CharString index="195">
            -70 callsubr
            193 -20 hstemhm
            return
          </CharString>
          <CharString index="196">
            rmoveto
            -117 -53 -58 -85 -109 vvcurveto
            return
          </CharString>
          <CharString index="197">
            120 hstem
            304 69 vstem
            249 return
          </CharString>
          <CharString index="198">
            509 hstem
            214 104 vstem
            214 return
          </CharString>
          <CharString index="199">
            115 278 115 return
          </CharString>
          <CharString index="200">
            -232 631 -274 return
          </CharString>
          <CharString index="201">
            -55 callsubr
            93 -21 return
          </CharString>
          <CharString index="202">
            21 144 callsubr
            return
          </CharString>
          <CharString index="203">
            300 -12 rmoveto
            return
          </CharString>
          <CharString index="204">
            vmoveto
            103 callgsubr
          </CharString>
          <CharString index="205">
            rmoveto
            -60 43 -42 57 57 43 42 60 59 -43 41 -57 -57 -43 -41 -59 vhcurveto
            endchar
          </CharString>
          <CharString index="206">
            rmoveto
            57 41 36 54 54 -41 37 -57 -56 -41 -37 -54 -54 41 -36 56 hvcurveto
            endchar
          </CharString>
          <CharString index="207">
            95 -118 rlineto
            82 hlineto
            endchar
          </CharString>
          <CharString index="208">
            -138 -82 -72 -31 -50 -62 vhcurveto
            74 -90 rlineto
            35 44 41 21 50 hhcurveto
            58 36 return
          </CharString>
          <CharString index="209">
            -66 47 -51 69 69 47 51 66 66 -47 52 -69 -69 -47 -52 -66 vhcurveto
            endchar
          </CharString>
          <CharString index="210">
            rmoveto
            554 2 hlineto
            -275 522 rlineto
            -4 hlineto
            -275 -522 rlineto
            endchar
          </CharString>
          <CharString index="211">
            138 hstemhm
            -62 callgsubr
            return
          </CharString>
          <CharString index="212">
            140 hstem
            131 140 58 140 vstem
            return
          </CharString>
          <CharString index="213">
            51 79 hstem
            161 97 84 94 vstem
            307 return
          </CharString>
          <CharString index="214">
            136 callgsubr
            endchar
          </CharString>
          <CharString index="215">
            -274 -631 120 callsubr
          </CharString>
          <CharString index="216">
            31 35 -45 54 hhcurveto
            return
          </CharString>
          <CharString index="217">
            rmoveto
            93 44 66 73 2 hvcurveto
            hintmask 11111100
            -82 hlineto
            -33 -4 -17 -26 -36 hhcurveto
            -35 return
          </CharString>
          <CharString index="218">
            hstem
            56 131 38 150 38 131 vstem
            96 callsubr
            147 97 return
          </CharString>
          <CharString index="219">
            rmoveto
            121 callsubr
            return
          </CharString>
          <CharString index="220">
            133 callgsubr
            endchar
          </CharString>
          <CharString index="221">
            5 83 30 69 vvcurveto
            41 -25 22 return
          </CharString>
          <CharString index="222">
            324 rmoveto
            107 311 -83 hlineto
            return
          </CharString>
          <CharString index="223">
            27 5 13 11 17 hhcurveto
            return
          </CharString>
          <CharString index="224">
            119 192 119 return
          </CharString>
          <CharString index="225">
            -72 3 43 -67 93 hhcurveto
            return
          </CharString>
          <CharString index="226">
            hstemhm
            64 147 return
          </CharString>
          <CharString index="227">
            -232 hlineto
            endchar
          </CharString>
          <CharString index="228">
            13 callgsubr
            -47 -32 -34 -44 -45 32 -34 47 hvcurveto
            return
          </CharString>
          <CharString index="229">
            rmoveto
            30 hlineto
            -330 550 rlineto
            -50 vlineto
            return
          </CharString>
          <CharString index="230">
            -137 -631 -138 631 -137 return
          </CharString>
          <CharString index="231">
            rmoveto
            73 55 52 80 80 -55 47 -73 -72 return
          </CharString>
          <CharString index="232">
            -28 -21 38 -53 hhcurveto
            return
          </CharString>
          <CharString index="233">
            147 183 return
          </CharString>
          <CharString index="234">
            rmoveto
            33 59 34 62 rlineto
            3 hlineto
            -5 -99 rlineto
            -22 vlineto
            145 hmoveto
            return
          </CharString>
          <CharString index="235">
            -55 callsubr
            60 172 callgsubr
            return
          </CharString>
          <CharString index="236">
            69 rlineto
            -94 hlineto
            5 -222 rlineto
            endchar
          </CharString>
          <CharString index="237">
            168.5 -20 hstem
            245.5 109 vstem
            return
          </CharString>
          <CharString index="238">
            574 rmoveto
            -89 167 rlineto
            -150 hlineto
            132 -167 rlineto
            return
          </CharString>
          <CharString index="239">
            vvcurveto
            -60 51 -34 63 35 44 15 20 26 vhcurveto
            -34 74 rlineto
            -7 return
          </CharString>
          <CharString index="240">
            hstem
            277 107 vstem
            277 return
          </CharString>
          <CharString index="241">
            -32 -20 -22 -9 -51 -6 rrcurveto
            return
          </CharString>
          <CharString index="242">
            72 126 callsubr
            151 return
          </CharString>
          <CharString index="243">
            274 188 -274 hlineto
            return
          </CharString>
          <CharString index="244">
            -120 rlineto
            117 hlineto
            return
          </CharString>
          <CharString index="245">
            460 104 -460 hlineto
            return
          </CharString>
          <CharString index="246">
            124 528 -20 return
          </CharString>
          <CharString index="247">
            -438 hlineto
            endchar
          </CharString>
          <CharString index="248">
            12 54 2 callsubr
            -43 41 48 -23 46 hhcurveto
            111 104 return
          </CharString>
          <CharString index="249">
            -750 rmoveto
            50 vlineto
            -420 700 rlineto
            -30 hlineto
            450 return
          </CharString>
          <CharString index="250">
            29 -15 18 vhcurveto
            endchar
          </CharString>
          <CharString index="251">
            -21 652 -20 return
          </CharString>
          <CharString index="252">
            174 callgsubr
            163 return
          </CharString>
          <CharString index="253">
            140 hstemhm
            131 140 -45 148 -45 140 return
          </CharString>
          <CharString index="254">
            -108 vlineto
            -47 -27 -49 -18 -74 -13 rrcurveto
            -91 131 return
          </CharString>
          <CharString index="255">
            110 hstem
            53 134 216 135 vstem
            282 return
          </CharString>
          <CharString index="256">
            173 callsubr
            endchar
          </CharString>
          <CharString index="257">
            rmoveto
            -156 hlineto
            -80 161 callsubr
          </CharString>
          <CharString index="258">
            47 48 -7 42 hhcurveto
            72 61 41 return
          </CharString>
          <CharString index="259">
            rmoveto
            113 138 -113 hlineto
            return
          </CharString>
          <CharString index="260">
            -400 rmoveto
            137 return
          </CharString>
          <CharString index="261">
            702 120 hstem
            return
          </CharString>
          <CharString index="262">
            -563 138 return
          </CharString>
          <CharString index="263">
            55 86 55 hstem
            187 72 81 73 vstem
            300 return
          </CharString>
          <CharString index="264">
            -250 1000 hstem
            235 130 vstem
            235 return
          </CharString>
          <CharString index="265">
            -250 rmoveto
            50 vlineto
            -120 200 rlineto
            -30 hlineto
            return
          </CharString>
          <CharString index="266">
            231 rmoveto
            438 138 140 callsubr
          </CharString>
          <CharString index="267">
            -73 3 43 -66 93 hhcurveto
            endchar
          </CharString>
          <CharString index="268">
            137 callsubr
            endchar
          </CharString>
          <CharString index="269">
            114 -46 120 hstemhm
            return
          </CharString>
          <CharString index="270">
            232 -631 274 return
          </CharString>
          <CharString index="271">
            -631 137 631 return
          </CharString>
          <CharString index="272">
            25 -89 9 vhcurveto
            endchar
          </CharString>
          <CharString index="273">
            rlineto
            -4 hlineto
            -53 return
          </CharString>
          <CharString index="274">
            -631 138 return
          </CharString>
          <CharString index="275">
            hstem
            31 101 78 107 127 106 vstem
            550 return
          </CharString>
          <CharString index="276">
            160 71 53 21 33 56 vhcurveto
            -42 73 rlineto
            return
          </CharString>
          <CharString index="277">
            hlineto
            20 165 rlineto
            -84 hlineto
            -21 -165 rlineto
            return
          </CharString>
          <CharString index="278">
            702 66 40 14 hstem
            164 272 vstem
            return
          </CharString>
          <CharString index="279">
            -69 163 rmoveto
            300 155 callsubr
            hlineto
            return
          </CharString>
          <CharString index="280">
            -95 rlineto
            107 hlineto
            -101 167 193 callgsubr
            return
          </CharString>
          <CharString index="281">
            697 89 callsubr
            return
          </CharString>
          <CharString index="282">
            65 -42 rlineto
            24 43 22 8 42 hhcurveto
            67 49 return
          </CharString>
          <CharString index="283">
            hvcurveto
            70 callsubr
            return
          </CharString>
          <CharString index="284">
            vlineto
            160 77 rlineto
            81 vlineto
            -160 -77 rlineto
            return
          </CharString>
          <CharString index="285">
            30 68 vvcurveto
            161 callgsubr
          </CharString>
          <CharString index="286">
            -11 -19 vvcurveto
            -17 -12 -7 -18 -4 vhcurveto
            endchar
          </CharString>
          <CharString index="287">
            -164 -119 455 119 vlineto
            endchar
          </CharString>
          <CharString index="288">
            hlineto
            101 167 rlineto
            -107 hlineto
            return
          </CharString>
          <CharString index="289">
            137 1400 -137 return
          </CharString>
          <CharString index="290">
            274 222 -274 hlineto
            return
          </CharString>
          <CharString index="291">
            -21 528 124 return
          </CharString>
          <CharString index="292">
            28 21 -38 53 hhcurveto
            return
          </CharString>
          <CharString index="293">
            hstemhm
            94 147 return
          </CharString>
          <CharString index="294" raw="1">
            f75a16af 0b  
          </CharString>
          <CharString index="295">
            181 152 callgsubr
            return
          </CharString>
          <CharString index="296">
            -77 callgsubr
            38 114 return
          </CharString>
          <CharString index="297">
            223 -126 92 -131 -122 -106 return
          </CharString>
          <CharString index="298">
            rlineto
            34 36 41 31 51 hhcurveto
            66 38 -34 return
          </CharString>
          <CharString index="299">
            -26 -6 -16 -20 return
          </CharString>
          <CharString index="300">
            -738 hlineto
            endchar
          </CharString>
        <CharString name=".notdef">
          0 91 477 92 hstem
          35 99 332 99 vstem
          35 hmoveto
          530 660 -530 hlineto
          99 -505 rmoveto
          371 vlineto
          94 -186 rlineto
          144 hmoveto
          94 186 rlineto
          -371 vlineto
          -248 -64 rmoveto
          39 77 41 98 2 callsubr
          41 -98 39 -77 rlineto
          -84 323 rmoveto
          -43 95 -31 59 rlineto
          152 hlineto
          -32 -59 -42 -95 rlineto
          endchar
        </CharString>
        <CharString name="A">
          21 -81 callgsubr
          hstem
          9 582 vstem
          229 270 -106 callsubr
        </CharString>
        <CharString name="AE">
          0 124 25 114 12 124 129 124 -111 111 hstemhm
          311 130 hintmask 11101100
          227 263 rmoveto
          28 93 16 57 20 63 17 65 rlinecurve
          3 -278 hlineto
          hintmask 10110100
          130 -139 rmoveto
          151 118 124 -118 129 145 124 -380 vlineto
          -209 -652 rlineto
          151 hlineto
          hintmask 11110100
          45 149 rlineto
          118 hlineto
          hintmask 10110100
          -149 284 124 vlineto
          endchar
        </CharString>
        <CharString name="Aacute">
          21 -81 callgsubr
          188 callgsubr
          9 582 vstem
          54 callgsubr
          -113 -432 -106 callsubr
        </CharString>
        <CharString name="Abreve">
          21 -81 callgsubr
          188 callgsubr
          9 582 vstem
          356 822 rmoveto
          -52 callgsubr
          87 42 49 71 8 hvcurveto
          -208 -552 -106 callsubr
        </CharString>
        <CharString name="Acircumflex">
          21 -81 callgsubr
          188 callgsubr
          9 582 vstem
          298 763 rmoveto
          -81 callsubr
          113 hlineto
          -16 -432 -106 callsubr
        </CharString>
        <CharString name="Adieresis">
          21 -81 callgsubr
          48 105 callsubr
          399 700 rmoveto
          -42 callgsubr
          -47 callsubr
          -198 23 callsubr
          -47 callsubr
          28 -430 -106 callsubr
        </CharString>
        <CharString name="Agrave">
          21 -81 callgsubr
          188 callgsubr
          9 582 vstem
          43 callgsubr
          -29 -432 -106 callsubr
        </CharString>
        <CharString name="Amacron">
          21 -81 callgsubr
          68 93 hstem
          159 282 vstem
          441 813 rmoveto
          -282 -93 282 hlineto
          -212 -450 -106 callsubr
        </CharString>
        <CharString name="Aogonek">
          -223 95 149 -81 callgsubr
          hstem
          394 107 vstem
          229 270 rmoveto
          15 60 18 65 17 76 16 69 rlinecurve
          4 hlineto
          17 -68 18 -77 17 -65 15 -60 rcurveline
          213 -384 rmoveto
          -7 -10 -14 -7 -15 hhcurveto
          -21 -18 13 25 40 35 45 55 5 hvcurveto
          -203 652 rlineto
          18 callgsubr
          40 hlineto
          -33 -19 -48 -48 -62 vvcurveto
          -60 50 -34 64 35 44 15 20 26 vhcurveto
          endchar
        </CharString>
        <CharString name="Aring">
          21 -81 callgsubr
          45 156 callsubr
          838 rmoveto
          22 18 -17 -26 -27 -18 -16 -22 -23 -18 16 27 26 18 17 23 hvcurveto
          -141 vmoveto
          67 46 38 60 59 -46 39 -67 -67 -46 -39 -59 -60 46 -38 67 hvcurveto
          -71 -427 -106 callsubr
        </CharString>
        <CharString name="Atilde">
          21 -81 callgsubr
          51 136 hstem
          130 75 190 75 vstem
          395 839 rmoveto
          -66 callsubr
          109 callsubr
          61 callgsubr
          -241 -569 -106 callsubr
        </CharString>
        <CharString name="B">
          0 114 171 104 149 114 hstemhm
          84 147 152 144 -114 144 hintmask 11110100
          84 hmoveto
          223 hlineto
          141 109 59 133 87 -49 49 -93 17 hvcurveto
          4 vlineto
          hintmask 11111000
          77 20 35 63 58 vvcurveto
          125 -104 37 -135 vhcurveto
          -204 hlineto
          147 -263 rmoveto
          149 51 vlineto
          69 32 -20 -49 -49 -30 -31 -72 hvcurveto
          -50 -275 rmoveto
          171 64 vlineto
          hintmask 11110100
          81 37 -25 -57 -59 -38 -30 -80 hvcurveto
          endchar
        </CharString>
        <CharString name="C">
          -77 callgsubr
          hstem
          55 151 -94 callsubr
          endchar
        </CharString>
        <CharString name="Cacute">
          -77 callgsubr
          38 120 hstem
          55 151 -94 callsubr
          461 500 -60 callsubr
          endchar
        </CharString>
        <CharString name="Ccaron">
          -77 callgsubr
          38 120 hstem
          55 151 -94 callsubr
          354 500 rmoveto
          80 callsubr
          -54 -39 callsubr
        </CharString>
        <CharString name="Ccedilla">
          -221 59 176 -21 544 127 hstem
          55 151 120 106 vstem
          488 173 rmoveto
          -35 -32 -37 -23 -47 hhcurveto
          -98 -68 78 134 131 68 79 92 47 34 -19 -28 31 hvcurveto
          81 91 rlineto
          43 -44 -66 40 -83 hhcurveto
          -174 -137 -126 -216 -192 108 -112 140 -25 hvcurveto
          -35 -69 rlineto
          44 -11 14 74 callgsubr
          -48 -5 vhcurveto
          11 -59 rlineto
          95 114 callsubr
          -34 11 vhcurveto
          14 32 71 6 62 32 49 57 rlinecurve
          endchar
        </CharString>
        <CharString name="Ccircumflex">
          -77 callgsubr
          38 120 hstem
          55 151 -94 callsubr
          243 380 rmoveto
          54 61 rlineto
          4 hlineto
          53 113 callgsubr
        </CharString>
        <CharString name="Cdotaccent">
          -77 callgsubr
          37 154 hstem
          55 151 62 171 -94 callsubr
          299 379 rmoveto
          49 36 32 45 45 -36 32 -49 -50 -36 -32 -45 -45 36 -32 50 hvcurveto
          endchar
        </CharString>
        <CharString name="D">
          0 165 callgsubr
          hstem
          65 148 192 151 vstem
          -64 callsubr
          endchar
        </CharString>
        <CharString name="Dcaron">
          0 165 callgsubr
          188 callgsubr
          65 148 192 151 vstem
          -64 callsubr
          118 703 rmoveto
          80 callsubr
          -54 -39 callsubr
        </CharString>
        <CharString name="Dcroat">
          -38 callgsubr
        </CharString>
        <CharString name="E">
          0 -72 callgsubr
          hstem
          94 147 vstem
          -100 callgsubr
          endchar
        </CharString>
        <CharString name="Eacute">
          0 -72 callgsubr
          188 callgsubr
          94 147 vstem
          -100 callgsubr
          390 170 rmoveto
          -157 hlineto
          -80 161 callsubr
        </CharString>
        <CharString name="Ebreve">
          0 -72 callgsubr
          188 callgsubr
          94 147 vstem
          -100 callgsubr
          228 50 rmoveto
          87 42 49 71 7 hvcurveto
          -80 hlineto
          192 callsubr
          -34 hhcurveto
          -35 -16 20 26 -6 hvcurveto
          -80 hlineto
          -71 7 42 -49 88 hhcurveto
          endchar
        </CharString>
        <CharString name="Ecaron">
          0 -72 callgsubr
          188 callgsubr
          94 147 vstem
          -100 callgsubr
          283 170 rmoveto
          80 callsubr
          -54 -39 callsubr
        </CharString>
        <CharString name="Ecircumflex">
          0 -72 callgsubr
          188 callgsubr
          94 147 vstem
          -100 callgsubr
          172 50 rmoveto
          54 61 rlineto
          4 hlineto
          53 113 callgsubr
        </CharString>
        <CharString name="Edieresis">
          0 -72 callgsubr
          48 140 186 callsubr
          -88 139 59 139 hintmask 11101000
          -100 callgsubr
          hintmask 11110110
          128 48 rmoveto
          42 28 30 40 40 -28 30 -42 -41 -28 -30 -40 -40 28 -30 41 hvcurveto
          199 hmoveto
          41 28 30 40 40 -28 30 -41 -47 callsubr
          endchar
        </CharString>
        <CharString name="Edotaccent">
          0 -72 callgsubr
          49 154 186 callsubr
          -5 171 hintmask 11101000
          -100 callgsubr
          hintmask 11110100
          228 49 rmoveto
          49 36 32 45 45 -36 32 -49 -50 -36 -32 -45 -45 36 -32 50 hvcurveto
          endchar
        </CharString>
        <CharString name="Egrave">
          0 -72 callgsubr
          188 callgsubr
          94 147 vstem
          -100 callgsubr
          185 50 rmoveto
          117 hlineto
          -80 120 rlineto
          -157 hlineto
          endchar
        </CharString>
        <CharString name="Emacron">
          0 -72 callgsubr
          68 93 186 callsubr
          -61 283 hintmask 11111000
          -100 callgsubr
          hintmask 11110100
          86 68 rmoveto
          283 93 -283 hlineto
          endchar
        </CharString>
        <CharString name="Eogonek">
          -223 95 128 -72 callgsubr
          hstem
          94 147 94 108 vstem
          94 hmoveto
          320 hlineto
          -34 -21 -45 -47 -61 177 callgsubr
          -33 74 rlineto
          -7 -10 -13 -7 -13 hhcurveto
          -21 -21 12 26 44 40 44 46 2 hvcurveto
          5 124 -293 150 240 123 -240 131 283 124 -430 hlineto
          endchar
        </CharString>
        <CharString name="Eth">
          -38 callgsubr
        </CharString>
        <CharString name="Euro">
          -12 114 113 75 50 74 119 114 hstem
          99 147 vstem
          502 156 rmoveto
          -35 -31 -35 -19 -46 hhcurveto
          -65 -45 40 73 -21 hvcurveto
          210 75 -222 hlineto
          -1 9 0 10 10 7 0 7 7 vvcurveto
          263 74 -253 hlineto
          76 19 44 43 68 hhcurveto
          43 33 -18 -25 31 hvcurveto
          81 79 rlineto
          50 -49 -66 28 -68 hhcurveto
          -143 -107 -85 -149 -33 hvcurveto
          -64 -5 rlineto
          -68 55 vlineto
          -1 -9 0 -8 -9 vvcurveto
          -9 0 -8 1 -9 vhcurveto
          -55 -4 rlineto
          -69 64 vlineto
          -149 32 105 -78 135 hhcurveto
          81 67 33 59 54 hvcurveto
          endchar
        </CharString>
        <CharString name="F">
          21 -21 253 124 151 124 hstem
          108 147 vstem
          108 hmoveto
          147 253 241 124 -241 151 283 124 -430 hlineto
          endchar
        </CharString>
        <CharString name="G">
          56 callgsubr
          hstem
          44 152 219 132 vstem
          -102 callsubr
          endchar
        </CharString>
        <CharString name="Gbreve">
          56 callgsubr
          38 120 hstem
          44 152 219 132 vstem
          -102 callsubr
          286 380 rmoveto
          88 41 49 71 8 hvcurveto
          -80 hlineto
          192 callsubr
          -35 hhcurveto
          -34 -16 20 26 -6 hvcurveto
          -80 hlineto
          -71 7 42 -49 87 hhcurveto
          endchar
        </CharString>
        <CharString name="Gcaron">
          56 callgsubr
          38 120 hstem
          44 152 219 132 vstem
          -102 callsubr
          342 500 rmoveto
          -54 -61 166 callsubr
          -39 callsubr
        </CharString>
        <CharString name="Gcircumflex">
          56 callgsubr
          38 120 hstem
          44 152 219 132 vstem
          -102 callsubr
          231 380 64 callsubr
        </CharString>
        <CharString name="Gdotaccent">
          56 callgsubr
          37 154 hstemhm
          44 152 49 170 0 132 hintmask 11101010
          -102 callsubr
          hintmask 11111100
          286 379 29 callgsubr
        </CharString>
        <CharString name="H">
          21 153 callgsubr
          hstem
          64 147 178 147 vstem
          -32 callsubr
          endchar
        </CharString>
        <CharString name="Hbar">
          21 -21 272 129 85 87 callsubr
          166 119 callsubr
          178 147 hintmask 11001110
          389 401 rmoveto
          -178 85 178 hlineto
          hintmask 11010110
          208 71 rmoveto
          -61 hlineto
          hintmask 11001110
          95 -147 vlineto
          hintmask 11010110
          -95 -178 vlineto
          hintmask 11001110
          95 -147 vlineto
          hintmask 11100110
          -96 vlineto
          -61 -5 rlineto
          hintmask 11001110
          -65 61 -486 147 272 178 -272 147 486 61 vlineto
          endchar
        </CharString>
        <CharString name="Hcircumflex">
          21 153 callgsubr
          70 120 hstem
          64 147 178 147 vstem
          -32 callsubr
          180 50 rmoveto
          53 61 rlineto
          -81 callsubr
          endchar
        </CharString>
        <CharString name="I">
          15 callgsubr
          25 callsubr
          -94 callgsubr
          endchar
        </CharString>
        <CharString name="Iacute">
          15 callgsubr
          50 78 callgsubr
          -94 callgsubr
          388 698 -60 callsubr
          endchar
        </CharString>
        <CharString name="Icircumflex">
          15 callgsubr
          50 78 callgsubr
          -94 callgsubr
          171 578 rmoveto
          53 61 rlineto
          -81 callsubr
          endchar
        </CharString>
        <CharString name="Idieresis">
          15 callgsubr
          48 146 callsubr
          hintmask 11001000
          -94 callgsubr
          hintmask 11110100
          127 576 -79 callgsubr
        </CharString>
        <CharString name="Idotaccent">
          15 callgsubr
          49 154 hstemhm
          215 170 -159 148 hintmask 11001000
          -94 callgsubr
          hintmask 11110000
          226 577 0 callgsubr
        </CharString>
        <CharString name="Igrave">
          15 callgsubr
          50 78 callgsubr
          -94 callgsubr
          184 578 1 callsubr
        </CharString>
        <CharString name="Imacron">
          15 callgsubr
          68 93 hstemhm
          159 282 -215 148 hintmask 11101000
          -94 callgsubr
          hintmask 11110000
          85 596 107 callsubr
        </CharString>
        <CharString name="Iogonek">
          -223 95 128 124 404 124 hstemhm
          192 107 -73 148 hintmask 01101000
          74 hmoveto
          hintmask 11110000
          192 hlineto
          -29 -21 -45 -44 -64 132 callsubr
          -9 -14 -7 -14 hhcurveto
          -20 -21 12 26 34 21 34 54 22 hvcurveto
          152 124 hlineto
          hintmask 01101000
          -152 404 152 124 -452 -124 152 -404 -152 hlineto
          endchar
        </CharString>
        <CharString name="Itilde">
          15 callgsubr
          51 136 hstemhm
          130 75 21 148 21 75 hintmask 11101000
          -94 callgsubr
          289 579 rmoveto
          hintmask 11111100
          61 callgsubr
          -75 hlineto
          -66 callsubr
          hhcurveto
          hintmask 11101000
          109 callsubr
          endchar
        </CharString>
        <CharString name="J">
          -12 127 414 123 11 callgsubr
          endchar
        </CharString>
        <CharString name="Jcircumflex">
          -12 127 414 123 50 120 11 callgsubr
          122 515 rmoveto
          54 61 rlineto
          4 hlineto
          53 113 callgsubr
        </CharString>
        <CharString name="K">
          95 callsubr
          hstem
          68 149 17 callgsubr
          endchar
        </CharString>
        <CharString name="L">
          0 139 callsubr
          hstem
          107 147 vstem
          -41 callsubr
          endchar
        </CharString>
        <CharString name="Lacute">
          0 139 callsubr
          70 120 hstem
          107 147 vstem
          -41 callsubr
          250 170 rmoveto
          -156 hlineto
          -81 -120 rlineto
          118 hlineto
          endchar
        </CharString>
        <CharString name="Lcaron">
          0 124 386 142 -142 222 -80 -20 hstemhm
          107 147 129.5 91 hintmask 10011100
          -41 callsubr
          hintmask 11001100
          342 -142 rmoveto
          hintmask 10101100
          25 152 1 70 rlineto
          -94 hlineto
          hintmask 11001100
          5 -222 rlineto
          endchar
        </CharString>
        <CharString name="Ldot">
          0 124 140 181 207 -20 hstem
          107 147 102 195 vstem
          -41 callsubr
          346 -388 99 callsubr
        </CharString>
        <CharString name="Lslash">
          0 139 callsubr
          hstem
          107 147 vstem
          254 124 rmoveto
          146 vlineto
          206 113 rlineto
          114 vlineto
          -206 -113 rlineto
          268 -147 -340 vlineto
          -74 -41 rlineto
          -114 vlineto
          74 41 rlineto
          -198 437 124 vlineto
          endchar
        </CharString>
        <CharString name="M">
          21 -21 174 157 177 144 hstem
          65 117 234 119 vstem
          -26 callsubr
          endchar
        </CharString>
        <CharString name="N">
          0 53 callsubr
          186 141 hintmask 01011100
          44 callsubr
          hintmask 01101100
          -82 callgsubr
          hintmask 10011100
          -63 callgsubr
          endchar
        </CharString>
        <CharString name="Nacute">
          0 -22 callsubr
          70 120 hstemhm
          66 141 186 141 hintmask 01011110
          44 callsubr
          hintmask 01101110
          -82 callgsubr
          hintmask 10011110
          -63 callgsubr
          402 170 -60 callsubr
          endchar
        </CharString>
        <CharString name="Ncaron">
          0 -22 callsubr
          70 120 hstemhm
          66 141 186 141 hintmask 01011110
          44 callsubr
          hintmask 01101110
          -82 callgsubr
          hintmask 10011110
          -63 callgsubr
          295 170 -61 callgsubr
        </CharString>
        <CharString name="Ntilde">
          0 -22 callsubr
          71 136 hstemhm
          66 141 -71 75 182 141 -133 75 hintmask 0101110100000000
          44 callsubr
          hintmask 0110110100000000
          -82 callgsubr
          hintmask 1001110100000000
          -63 callgsubr
          303 51 rmoveto
          hintmask 0101101010000000
          61 callgsubr
          -75 hlineto
          -66 callsubr
          hhcurveto
          hintmask 1001110100000000
          109 callsubr
          endchar
        </CharString>
        <CharString name="O">
          -77 callgsubr
          hstem
          -25 callgsubr
          vstem
          -106 callgsubr
          endchar
        </CharString>
        <CharString name="OE">
          0 119 -119 124 150 123 132 123 -119 119 hstemhm
          19 151 124 131 hintmask 01110110
          19 329 rmoveto
          -224 114 -105 154 vhcurveto
          308 124 -170 150 121 123 -121 132 160 123 -290 hlineto
          -158 -118 -99 -224 hvcurveto
          hintmask 10101110
          151 hmoveto
          157 42 47 66 vhcurveto
          16 -414 -16 hlineto
          -66 -42 52 158 hvcurveto
          endchar
        </CharString>
        <CharString name="Oacute">
          -77 callgsubr
          38 120 hstem
          -25 callgsubr
          vstem
          -106 callgsubr
          162 707 -60 callsubr
          endchar
        </CharString>
        <CharString name="Ocircumflex">
          -77 callgsubr
          38 120 hstem
          -25 callgsubr
          vstem
          -106 callgsubr
          -55 587 rmoveto
          53 61 rlineto
          -81 callsubr
          endchar
        </CharString>
        <CharString name="Odieresis">
          -77 callgsubr
          36 140 hstemhm
          38 151 -58 140 58 140 -58 151 hintmask 11110010
          -106 callgsubr
          hintmask 11101100
          -99 585 -79 callgsubr
        </CharString>
        <CharString name="Ograve">
          -77 callgsubr
          38 120 hstem
          -25 callgsubr
          vstem
          -106 callgsubr
          -42 587 1 callsubr
        </CharString>
        <CharString name="Ohorn">
          -77 callgsubr
          78 callsubr
          -81 114 hintmask 11110000
          300 115 -16 callgsubr
          hintmask 11101000
          -85 callgsubr
          hintmask 11110000
          -15 callsubr
          hintmask 11101000
          64 16 46 39 68 -58 callsubr
        </CharString>
        <CharString name="Ohungarumlaut">
          -77 callgsubr
          38 120 hstem
          -25 callgsubr
          vstem
          -106 callgsubr
          -38 587 4 callsubr
        </CharString>
        <CharString name="Omacron">
          -77 callgsubr
          56 93 hstemhm
          38 151 -30 282 -30 151 hintmask 11110100
          -106 callgsubr
          hintmask 11101000
          -141 605 107 callsubr
        </CharString>
        <CharString name="Oslash">
          -12 127 -106 -21 549 127 0 -20 78 callsubr
          hintmask 10101100
          407 393 rmoveto
          3 -19 1 -22 -23 vvcurveto
          -131 -43 -83 -68 -25 -21 11 20 -17 vhcurveto
          -42 103 rmoveto
          -4 24 -2 27 29 vvcurveto
          130 43 78 68 27 24 -13 -23 18 vhcurveto
          hintmask 10011100
          210 142 rmoveto
          hintmask 01101100
          -78 50 -53 -77 rlineto
          31 -41 -50 17 -57 hhcurveto
          -155 -107 -122 -213 -93 20 -77 36 -57 hvcurveto
          -64 -93 rlineto
          hintmask 10011100
          78 -50 51 73 rlineto
          -29 39 48 -15 54 hhcurveto
          155 107 128 213 88 -18 72 -33 55 hvcurveto
          endchar
        </CharString>
        <CharString name="Otilde">
          -77 callgsubr
          39 136 hstemhm
          38 151 -59 75 190 75 -59 151 hintmask 11110010
          -106 callgsubr
          63 588 rmoveto
          hintmask 11101100
          61 callgsubr
          -75 hlineto
          -66 callsubr
          hhcurveto
          hintmask 11110010
          109 callsubr
          endchar
        </CharString>
        <CharString name="P">
          21 -21 221 117 197 117 hstem
          74 147 201 145 vstem
          74 hmoveto
          147 221 91 hlineto
          138 117 68 153 158 -114 52 -141 hvcurveto
          -238 hlineto
          147 -314 rmoveto
          197 82 vlineto
          78 41 -25 -68 -68 -38 -36 -81 hvcurveto
          endchar
        </CharString>
        <CharString name="Q">
          -178 118 597 127 hstem
          36 151 220 150 vstem
          297 537 rmoveto
          68 42 -78 -130 -131 -42 -83 -68 -69 -41 83 131 130 41 78 69 hvcurveto
          257 -584 rmoveto
          -7 -14 -19 -6 -20 hhcurveto
          -47 -49 15 47 -23 hvcurveto
          107 39 68 117 171 vvcurveto
          212 -105 123 -155 -156 -105 -122 -213 -180 75 -119 117 -33 vhcurveto
          -102 41 88 -73 127 hhcurveto
          41 33 9 12 22 hvcurveto
          endchar
        </CharString>
        <CharString name="R">
          21 57 callsubr
          hstem
          70 147 191 145 vstem
          217 535 31 callgsubr
          367 -352 rmoveto
          -147 261 rlineto
          -71 callsubr
          endchar
        </CharString>
        <CharString name="Racute">
          21 57 callsubr
          188 callgsubr
          70 147 191 145 vstem
          465 39 callsubr
          -128 -167 31 callgsubr
          367 -352 rmoveto
          -147 261 rlineto
          -71 callsubr
          endchar
        </CharString>
        <CharString name="Rcaron">
          21 57 callsubr
          188 callgsubr
          70 147 191 145 vstem
          374 702 rmoveto
          96 120 rlineto
          -112 hlineto
          80 callsubr
          -54 61 rlineto
          -112 hlineto
          96 -120 rlineto
          -14 -167 31 callgsubr
          367 -352 rmoveto
          -147 261 rlineto
          -71 callsubr
          endchar
        </CharString>
        <CharString name="S">
          -77 callgsubr
          hstem
          76 149 175 151 vstem
          -102 callgsubr
          endchar
        </CharString>
        <CharString name="Sacute">
          -77 callgsubr
          38 120 hstem
          76 149 175 151 vstem
          -102 callgsubr
          334 639 150 callsubr
        </CharString>
        <CharString name="Scaron">
          -77 callgsubr
          38 120 hstem
          76 149 175 151 vstem
          -102 callgsubr
          228 639 rmoveto
          -54 -61 166 callsubr
          -39 callsubr
        </CharString>
        <CharString name="Scircumflex">
          -77 callgsubr
          38 120 hstem
          76 149 175 151 vstem
          -102 callgsubr
          117 519 64 callsubr
        </CharString>
        <CharString name="T">
          21 184 callsubr
          25 callsubr
          -24 callgsubr
          endchar
        </CharString>
        <CharString name="Tcaron">
          21 184 callsubr
          50 78 callgsubr
          -24 callgsubr
          129 294 -61 callgsubr
        </CharString>
        <CharString name="Thorn">
          21 -21 123 117 196 117 99 -20 hstem
          73 147 201 145 vstem
          73 hmoveto
          147 123 91 hlineto
          138 117 67 154 158 -114 51 -141 hvcurveto
          -91 99 -147 hlineto
          147 -412 rmoveto
          196 82 vlineto
          78 41 -24 -68 -68 -38 -36 -81 hvcurveto
          endchar
        </CharString>
        <CharString name="U">
          -44 callsubr
          hstem
          14 callsubr
          vstem
          -104 callsubr
          endchar
        </CharString>
        <CharString name="Uacute">
          -44 callsubr
          70 120 hstem
          14 callsubr
          vstem
          -104 callsubr
          398 170 -60 callsubr
          endchar
        </CharString>
        <CharString name="Ubreve">
          -44 callsubr
          70 120 hstem
          14 callsubr
          vstem
          -104 callsubr
          236 50 rmoveto
          87 42 49 71 8 hvcurveto
          -81 hlineto
          -52 callgsubr
          endchar
        </CharString>
        <CharString name="Ucircumflex">
          -44 callsubr
          70 120 hstem
          14 callsubr
          vstem
          -104 callsubr
          181 50 rmoveto
          53 61 rlineto
          -81 callsubr
          endchar
        </CharString>
        <CharString name="Udieresis">
          -44 callsubr
          68 140 119 callsubr
          -80 140 58 140 -75 142 hintmask 11110010
          -104 callsubr
          137 48 rmoveto
          hintmask 11101010
          -42 callgsubr
          hvcurveto
          hintmask 11110010
          -47 callsubr
          198 23 callsubr
          hvcurveto
          hintmask 11110100
          -41 -29 -30 -40 hvcurveto
          hintmask 11110010
          -40 29 -30 41 vhcurveto
          endchar
        </CharString>
        <CharString name="Ugrave">
          -44 callsubr
          70 120 hstem
          14 callsubr
          vstem
          -104 callsubr
          194 50 1 callsubr
        </CharString>
        <CharString name="Uhorn">
          -44 callsubr
          hstemhm
          14 callsubr
          10 114 vstemhm
          531 760 rmoveto
          7 -12 8 -16 -18 vvcurveto
          -52 -42 -8 -40 -2 vhcurveto
          hintmask 11110000
          -84 callgsubr
          hintmask 11111000
          70 13 54 38 75 -58 callsubr
        </CharString>
        <CharString name="Uhungarumlaut">
          -44 callsubr
          70 120 hstem
          14 callsubr
          vstem
          -104 callsubr
          198 50 4 callsubr
        </CharString>
        <CharString name="Umacron">
          -44 callsubr
          88 93 hstem
          14 callsubr
          vstem
          -104 callsubr
          95 68 107 callsubr
        </CharString>
        <CharString name="Uogonek">
          -223 95 118 125 -104 -21 662 -20 119 callsubr
          -1 108 76 142 hintmask 10111010
          64 251 rmoveto
          -157 69 -95 141 -9 vhcurveto
          hintmask 11010110
          -17 -17 -47 -40 -62 177 callgsubr
          -34 74 rlineto
          -7 -9 -13 -7 -13 hhcurveto
          -21 -21 12 26 28 17 34 77 37 hvcurveto
          82 39 42 79 124 vvcurveto
          401 -142 -416 vlineto
          -78 -31 -43 -62 vhcurveto
          hintmask 11011010
          -61 -29 43 78 hvcurveto
          67 callsubr
          vlineto
          endchar
        </CharString>
        <CharString name="Uring">
          -44 callsubr
          65 55 86 55 119 callsubr
          -24 72 81 73 -19 142 hintmask 11111001
          -104 callsubr
          hintmask 11110110
          236 45 20 callgsubr
        </CharString>
        <CharString name="Utilde">
          81 callsubr
          hintmask 11110100
          -104 callsubr
          299 51 rmoveto
          hintmask 11110010
          61 callgsubr
          -75 hlineto
          -33 -7 -14 -12 -17 -31 -35 45 -54 hhcurveto
          -52 -45 -45 -91 -10 hvcurveto
          hintmask 11101100
          75 hlineto
          33 7 14 12 17 hhcurveto
          hintmask 11110100
          109 callsubr
          endchar
        </CharString>
        <CharString name="V">
          0 139 -118 144 callsubr
          hstemhm
          15 570 hintmask 01110000
          212 hmoveto
          177 hlineto
          196 652 rlineto
          -150 hlineto
          -77 -304 rlineto
          hintmask 10110000
          -19 -71 -14 -66 -20 -72 rrcurveto
          -4 hlineto
          -19 72 -13 66 -20 71 -78 304 rcurveline
          -156 hlineto
          endchar
        </CharString>
        <CharString name="W">
          44 callgsubr
          hstem
          4 592 -98 callsubr
          endchar
        </CharString>
        <CharString name="Wacute">
          44 callgsubr
          70 120 hstem
          4 592 -98 callsubr
          458 170 -60 callsubr
          endchar
        </CharString>
        <CharString name="Wcircumflex">
          44 callgsubr
          70 120 hstem
          4 592 -98 callsubr
          241 50 rmoveto
          53 61 rlineto
          -81 callsubr
          endchar
        </CharString>
        <CharString name="Wdieresis">
          44 callgsubr
          68 140 hstem
          131 140 58 140 -98 callsubr
          197 48 -79 callgsubr
        </CharString>
        <CharString name="Wgrave">
          44 callgsubr
          70 120 hstem
          4 592 -98 callsubr
          254 50 1 callsubr
        </CharString>
        <CharString name="X">
          95 callsubr
          hstem
          18 564 vstem
          18 hmoveto
          157 hlineto
          68 133 16 34 16 33 16 40 rlinecurve
          4 hlineto
          18 -40 16 -33 18 -34 71 -133 rcurveline
          164 hlineto
          -190 328 179 324 rlineto
          -158 hlineto
          -58 -123 -14 -30 -14 -34 -16 -41 rlinecurve
          -4 hlineto
          -20 41 -15 34 -15 30 -63 123 rcurveline
          -165 hlineto
          179 -317 rlineto
          endchar
        </CharString>
        <CharString name="Y">
          95 callsubr
          25 callsubr
          -100 callsubr
          endchar
        </CharString>
        <CharString name="Yacute">
          95 callsubr
          70 78 callgsubr
          -100 callsubr
          236 602 -60 callsubr
          endchar
        </CharString>
        <CharString name="Ycircumflex">
          95 callsubr
          70 78 callgsubr
          -100 callsubr
          19 482 rmoveto
          53 61 rlineto
          -81 callsubr
          endchar
        </CharString>
        <CharString name="Ydieresis">
          95 callsubr
          68 146 callsubr
          hintmask 11101000
          -100 callsubr
          hintmask 11110100
          -25 480 -79 callgsubr
        </CharString>
        <CharString name="Ygrave">
          95 callsubr
          70 78 callgsubr
          -100 callsubr
          32 482 1 callsubr
        </CharString>
        <CharString name="Z">
          0 138 callgsubr
          hstem
          56 491 vstem
          -57 callsubr
          endchar
        </CharString>
        <CharString name="Zacute">
          0 138 callgsubr
          188 callgsubr
          56 491 vstem
          -57 callsubr
          420 733 150 callsubr
        </CharString>
        <CharString name="Zcaron">
          0 138 callgsubr
          188 callgsubr
          56 491 vstem
          -57 callsubr
          314 733 rmoveto
          -54 -61 166 callsubr
          -39 callsubr
        </CharString>
        <CharString name="Zdotaccent">
          0 138 callgsubr
          49 154 hstem
          229 170 vstem
          -57 callsubr
          258 612 29 callgsubr
        </CharString>
        <CharString name="a">
          -12 -84 callsubr
          -3 callsubr
          hintmask 01111100
          67 callgsubr
          hintmask 10111100
          -90 callgsubr
          hintmask 01111100
          -105 callgsubr
          hintmask 10111100
          -103 callsubr
          endchar
        </CharString>
        <CharString name="a.a">
          -12 141 callgsubr
          183 147 hintmask 10101100
          -107 callsubr
          hintmask 01011100
          -85 callsubr
          hintmask 01101100
          -89 callgsubr
          hintmask 10101100
          -63 callsubr
          endchar
        </CharString>
        <CharString name="a.supa">
          -46 callgsubr
        </CharString>
        <CharString name="a.sups">
          -53 callgsubr
        </CharString>
        <CharString name="aacute">
          -45 callsubr
          167 -3 callsubr
          hintmask 01111110
          67 callgsubr
          hintmask 10111110
          -90 callgsubr
          hintmask 01111110
          -105 callgsubr
          hintmask 10111110
          -103 callsubr
          264 592 rmoveto
          -151 hlineto
          -89 -167 rlineto
          108 hlineto
          endchar
        </CharString>
        <CharString name="aacute.a">
          -97 callgsubr
          424 493 -37 callgsubr
        </CharString>
        <CharString name="abreve">
          -45 callsubr
          81 81 callgsubr
          -41 82 130 82 -67 147 hintmask 0111110010000000
          67 callgsubr
          hintmask 1011110010000000
          -90 callgsubr
          hintmask 0111110010000000
          -105 callgsubr
          hintmask 1011110010000000
          -103 callsubr
          hintmask 0111101100000000
          106 425 -61 callsubr
          3 45 -75 99 hhcurveto
          endchar
        </CharString>
        <CharString name="abreve.a">
          -83 callsubr
          98 81 61 callsubr
          -32 82 131 82 -80 147 hintmask 1010110010000000
          -107 callsubr
          hintmask 0101110010000000
          -85 callsubr
          hintmask 0110110010000000
          -89 callgsubr
          hintmask 1010110010000000
          -63 callsubr
          hintmask 0101101100000000
          36 callsubr
          endchar
        </CharString>
        <CharString name="acircumflex">
          -45 callsubr
          167 -3 callsubr
          hintmask 01111110
          67 callgsubr
          hintmask 10111110
          -90 callgsubr
          hintmask 01111110
          -105 callgsubr
          hintmask 10111110
          -103 callsubr
          -56 425 -65 callgsubr
          endchar
        </CharString>
        <CharString name="acircumflex.a">
          -97 callgsubr
          104 326 -36 callgsubr
          endchar
        </CharString>
        <CharString name="acute">
          5 callgsubr
        </CharString>
        <CharString name="adieresis">
          -12 -84 callsubr
          63 157 81 callgsubr
          -81 157 61 157 -108 147 hintmask 0111110010000000
          67 callgsubr
          hintmask 1011110010000000
          -90 callgsubr
          hintmask 0111110010000000
          -105 callgsubr
          hintmask 1011110010000000
          -103 callsubr
          hintmask 0111101100000000
          -3 422 rmoveto
          46 33 34 45 44 -33 34 -46 -46 -32 -34 -44 -45 32 -34 46 hvcurveto
          218 hmoveto
          47 25 callgsubr
          -47 -46 -32 -34 -44 -45 32 -34 46 hvcurveto
          endchar
        </CharString>
        <CharString name="adieresis.a">
          -83 callsubr
          95 157 61 callsubr
          -72 157 61 157 -120 147 hintmask 1010110010000000
          -107 callsubr
          hintmask 0101110010000000
          -85 callsubr
          hintmask 0110110010000000
          -89 callgsubr
          hintmask 1010110010000000
          -63 callsubr
          hintmask 0101101100000000
          157 323 rmoveto
          47 25 callgsubr
          -47 -46 -32 -34 -44 -45 32 -34 46 hvcurveto
          219 98 callgsubr
        </CharString>
        <CharString name="ae">
          -12 115 102 90 96 117 -112 112 hstemhm
          16 132 93 116 119 117 hintmask 11011110
          16 138 rmoveto
          -83 48 -67 90 45 43 23 54 52 vhcurveto
          -47 34 46 -30 71 hhcurveto
          42 53 17 30 38 hvcurveto
          -50 94 rlineto
          -18 -27 -23 -8 -28 hhcurveto
          -47 -33 34 68 -11 hvcurveto
          227 hlineto
          3 13 4 24 27 vvcurveto
          130 -53 109 -102 -58 -36 -24 -49 -34 vhcurveto
          44 -23 -35 29 -58 hhcurveto
          -57 -53 -22 -33 -55 hvcurveto
          hintmask 11101110
          52 -96 rlineto
          21 35 41 13 27 hhcurveto
          38 15 -25 -46 4 hvcurveto
          hintmask 11011110
          -151 -29 -74 -51 -102 vvcurveto
          341 157 rmoveto
          69 7 27 32 33 hhcurveto
          40 12 -46 -55 hvcurveto
          -328 -145 rmoveto
          38 27 29 65 14 vhcurveto
          1 -21 2 -25 4 -28 8 -21 rlinecurve
          -22 -18 -24 -12 -19 hhcurveto
          -29 -17 17 31 hvcurveto
          endchar
        </CharString>
        <CharString name="agrave">
          -45 callsubr
          167 -3 callsubr
          hintmask 01111110
          67 callgsubr
          hintmask 10111110
          -90 callgsubr
          hintmask 01111110
          -105 callgsubr
          hintmask 10111110
          -103 callsubr
          81 425 10 callsubr
        </CharString>
        <CharString name="agrave.a">
          -97 callgsubr
          241 326 10 callsubr
        </CharString>
        <CharString name="amacron">
          -12 -84 callsubr
          84 93 81 callgsubr
          -32 276 -58 147 hintmask 01111101
          67 callgsubr
          hintmask 10111101
          -90 callgsubr
          hintmask 01111101
          -105 callgsubr
          hintmask 10111101
          -103 callsubr
          hintmask 01111010
          -32 443 -17 callsubr
        </CharString>
        <CharString name="amacron.a">
          -83 callsubr
          116 93 61 callsubr
          -22 276 -71 147 hintmask 10101101
          -107 callsubr
          hintmask 01011101
          -85 callsubr
          hintmask 01101101
          -89 callgsubr
          hintmask 10101101
          -63 callsubr
          hintmask 01011010
          129 344 -17 callsubr
        </CharString>
        <CharString name="ampersand">
          -12 112 467 97 hstemhm
          23 139 -76 121 84 113 hintmask 11101000
          162 183 rmoveto
          27 11 24 18 22 vhcurveto
          35 -48 43 -45 46 -40 rrcurveto
          -15 -21 -21 -8 -22 hhcurveto
          -53 -36 34 49 hvcurveto
          hintmask 11011000
          45 311 rmoveto
          45 18 28 25 30 11 -20 -31 -41 -28 -29 -37 -27 vhcurveto
          -12 26 -7 25 24 vvcurveto
          245 -126 rmoveto
          -12 -58 -19 -50 -24 -42 -43 35 -42 40 -32 41 rrcurveto
          61 48 63 51 83 vvcurveto
          90 -59 58 -98 -99 -62 -78 -93 -41 15 -48 27 -51 vhcurveto
          hintmask 11101000
          -56 -41 -49 -52 -86 vvcurveto
          -100 73 -86 136 73 59 24 39 49 vhcurveto
          47 -31 46 -21 45 -11 35 119 rcurveline
          -28 6 -30 14 -33 21 42 68 29 73 20 79 rrcurveto
          endchar
        </CharString>
        <CharString name="aogonek">
          -210 87 111 114 -83 -21 23 -21 231 88 72 117 81 callgsubr
          146 99 -59 147 hintmask 1001111010000000
          67 callgsubr
          hintmask 1100111100000000
          -90 callgsubr
          hintmask 1010111100000000
          12 -58 rlineto
          -25 -17 -43 -41 -59 vvcurveto
          -23 callsubr
          hvcurveto
          hintmask 1001111010000000
          30 23 37 65 18 vhcurveto
          284 vlineto
          152 -85 72 -139 -85 -79 -28 -39 -68 vhcurveto
          52 -96 rlineto
          28 56 47 18 48 hhcurveto
          67 34 -27 -45 5 hvcurveto
          -69 callgsubr
          hintmask 1100111010000000
          -103 callsubr
          endchar
        </CharString>
        <CharString name="aogonek.a">
          -210 87 111 120 -89 -21 23 104 callgsubr
          143 99 -59 147 hintmask 1100101010000000
          198 250 rmoveto
          94 46 44 54 29 27 -9 -24 27 vhcurveto
          -201 vlineto
          -33 -26 -28 -13 -33 hhcurveto
          -61 -35 44 98 hvcurveto
          -151 -2 rmoveto
          -162 84 -98 125 vhcurveto
          hintmask 1100011100000000
          48 54 27 36 36 hvcurveto
          3 hlineto
          hintmask 1010011100000000
          13 -53 rlineto
          -27 -18 -42 -40 -59 vvcurveto
          -60 47 157 callgsubr
          -9 -14 -6 -13 hhcurveto
          -22 -20 12 26 hvcurveto
          hintmask 1001011010000000
          30 22 35 66 20 vhcurveto
          496 -115 vlineto
          hintmask 1001101010000000
          -89 callgsubr
          hintmask 1100101010000000
          -63 callsubr
          endchar
        </CharString>
        <CharString name="approxequal">
          124 104 -29 104 54 104 -29 104 hstemhm
          52 496 hintmask 10011000
          140 351 49 callgsubr
          hintmask 01011000
          176 callgsubr
          88 -274 49 callgsubr
          hintmask 01101000
          176 callgsubr
          endchar
        </CharString>
        <CharString name="aring">
          -12 -84 callsubr
          40 55 94 55 81 callgsubr
          -6 71 82 72 -33 147 hintmask 1011111001000000
          67 callgsubr
          -90 callgsubr
          hintmask 0111110101000000
          11 -56 rlineto
          120 284 hlineto
          152 -85 72 -139 -85 -79 -28 -39 -68 vhcurveto
          52 -96 rlineto
          28 56 47 18 48 hhcurveto
          67 34 -27 -45 5 hvcurveto
          hintmask 1011111001000000
          -69 callgsubr
          -103 callsubr
          hintmask 0111110110000000
          106 399 rmoveto
          67 46 40 62 62 -46 40 -67 -67 -45 -40 -62 -62 45 -40 67 hvcurveto
          55 vmoveto
          -22 -19 19 28 28 19 19 22 23 18 -19 -28 -28 -18 -19 -23 hvcurveto
          endchar
        </CharString>
        <CharString name="aring.a">
          -83 callsubr
          72 55 94 55 61 callsubr
          3 72 81 72 -45 147 hintmask 1010111001000000
          -107 callsubr
          hintmask 0101111001000000
          -85 callsubr
          hintmask 0110111001000000
          -89 callgsubr
          hintmask 1010111001000000
          -63 callsubr
          hintmask 0101110110000000
          267 300 rmoveto
          67 45 40 62 62 -45 40 -67 -68 -45 -40 -62 -62 45 -40 68 176 callsubr
          22 18 -19 -28 -28 -18 -19 -22 hvcurveto
          endchar
        </CharString>
        <CharString name="arrowdown">
          -26 555 hstem
          242 116 vstem
          302 -26 rmoveto
          267 278 -79 70 -132 -150 rlineto
          357 -116 -357 vlineto
          -132 150 -79 -70 267 -278 rlineto
          endchar
        </CharString>
        <CharString name="arrowup">
          -26 555 hstem
          242 116 vstem
          298 529 rmoveto
          -267 -278 79 -69 132 150 rlineto
          -358 116 358 vlineto
          132 -150 79 69 -267 278 rlineto
          endchar
        </CharString>
        <CharString name="asciicircum">
          274 396 -133 133 hstemhm
          86 428 hintmask 10100000
          86 274 rmoveto
          121 hlineto
          46 128 rlineto
          hintmask 01100000
          45 135 2 callsubr
          45 -135 46 -128 rlineto
          121 hlineto
          -155 396 rlineto
          -118 hlineto
          endchar
        </CharString>
        <CharString name="asciitilde">
          240 104 -28 104 hstemhm
          52 496 hintmask 01100000
          140 234 rmoveto
          55 19 27 27 27 hhcurveto
          hintmask 10100000
          55 34 -76 83 hhcurveto
          62 59 41 104 42 hvcurveto
          -88 41 rlineto
          -56 -19 -26 -26 -28 hhcurveto
          hintmask 01100000
          -55 -34 76 -83 hhcurveto
          -62 -59 -41 -104 -42 hvcurveto
          endchar
        </CharString>
        <CharString name="asterisk">
          91 475 hstem
          255 90 vstem
          184 91 rmoveto
          116 142 116 -142 64 44 -97 157 153 68 -23 71 -162 -43 -12 178 rlineto
          -78 hlineto
          -12 -178 -162 43 -23 -71 153 -68 -97 -157 rlineto
          endchar
        </CharString>
        <CharString name="asterisk.a">
          279 433 hstem
          255 90 vstem
          199 279 rmoveto
          101 126 101 -126 64 44 -82 140 133 56 -23 72 -142 -32 -12 153 rlineto
          -78 hlineto
          -12 -153 -142 32 -23 -72 133 -56 -82 -140 rlineto
          endchar
        </CharString>
        <CharString name="at">
          -147 89 146 96 372 88 168 callsubr
          399 rmoveto
          138 -67 107 -152 -163 -137 -120 -271 -272 148 -128 169 callsubr
          -23 -39 -34 -15 -60 hhcurveto
          -109 -103 99 208 220 102 87 94 89 42 -66 -74 hvcurveto
          -16 vlineto
          -152 -19 -97 -45 189 callgsubr
          37 25 vhcurveto
          4 hlineto
          11 -51 rlineto
          78 hlineto
          -233 132 rmoveto
          44 34 21 93 15 vhcurveto
          -92 vlineto
          -22 -22 -23 -14 -29 hhcurveto
          -33 -20 18 30 hvcurveto
          endchar
        </CharString>
        <CharString name="at.case">
          -25 89 88 95 328 89 168 callsubr
          446 rmoveto
          120 -66 98 -146 -164 -143 -103 -245 -231 148 -110 169 callsubr
          -24 -39 -34 -14 -60 hhcurveto
          -109 -103 80 169 193 109 69 93 83 42 -49 -55 hvcurveto
          -7 vlineto
          -152 -20 -97 -44 189 callgsubr
          36 25 vhcurveto
          4 hlineto
          11 -50 rlineto
          78 hlineto
          -233 131 rmoveto
          45 34 21 93 14 vhcurveto
          -91 vlineto
          -22 -22 -23 -15 -29 hhcurveto
          -33 -20 19 29 hvcurveto
          endchar
        </CharString>
        <CharString name="atilde">
          -12 -84 callsubr
          67 91 -91 143 -3 callsubr
          hintmask 01110111
          67 callgsubr
          hintmask 10110111
          -90 callgsubr
          hintmask 01110111
          -105 callgsubr
          hintmask 10110111
          -103 callsubr
          -65 426 23 callgsubr
          hintmask 01111011
          65 callsubr
          hintmask 01110111
          14 callgsubr
          hintmask 01111011
          32 callsubr
          hintmask 01110111
          139 callgsubr
          hintmask 10110111
          2 callgsubr
        </CharString>
        <CharString name="atilde.a">
          -83 callsubr
          99 91 -91 143 -27 callgsubr
          hintmask 10100111
          -107 callsubr
          hintmask 01010111
          -85 callsubr
          hintmask 01100111
          -89 callgsubr
          hintmask 10100111
          -63 callsubr
          hintmask 01010111
          96 327 23 callgsubr
          hintmask 01011011
          65 callsubr
          hintmask 01010111
          61 43 47 96 12 hvcurveto
          -75 hlineto
          hintmask 01011011
          32 callsubr
          hintmask 01010111
          -27 -31 52 -48 hhcurveto
          2 callgsubr
        </CharString>
        <CharString name="b">
          -12 88 callsubr
          135 callsubr
          hintmask 01111100
          72 hmoveto
          115 hlineto
          hintmask 10111100
          141 callsubr
          98 171 152 -76 99 -124 -48 -51 -21 -36 -39 hvcurveto
          4 78 rlineto
          172 -147 vlineto
          147 -560 rmoveto
          127 callgsubr
          -54 -26 -32 9 24 -28 hvcurveto
          endchar
        </CharString>
        <CharString name="b.sups">
          252 84 177 84 hstem
          154 104 113 107 vstem
          154 260 rmoveto
          81 hlineto
          9 35 rlineto
          2 hlineto
          -28 27 31 -15 31 hhcurveto
          74 69 65 113 100 -51 67 -83 -31 -33 -14 -22 -24 hvcurveto
          2 49 rlineto
          112 -104 vlineto
          104 -367 rmoveto
          64 callgsubr
        </CharString>
        <CharString name="backslash">
          -160 870 hstem
          74 452 vstem
          403 -160 rmoveto
          123 hlineto
          -329 870 193 callgsubr
          endchar
        </CharString>
        <CharString name="bar">
          157 callsubr
          -250 rmoveto
          130 1000 -130 hlineto
          endchar
        </CharString>
        <CharString name="braceleft">
          191 callgsubr
          106 152 -25 125 hintmask 11101000
          233 -10 rmoveto
          -108 58 -34 128 vhcurveto
          77 78 -41 hlineto
          -83 -19 14 56 hvcurveto
          54 5 48 61 vvcurveto
          76 -29 29 -71 12 vhcurveto
          4 vlineto
          71 12 29 29 76 59 -5 51 53 vvcurveto
          56 19 14 83 vhcurveto
          41 78 -77 hlineto
          -128 -58 -34 -108 hvcurveto
          -70 10 -39 -62 vvcurveto
          hintmask 11110000
          -35 -29 -37 -108 -2 vhcurveto
          -86 vlineto
          hintmask 11101000
          108 -2 29 -37 -35 -63 -10 -37 -71 vvcurveto
          endchar
        </CharString>
        <CharString name="braceright">
          191 callgsubr
          243 125 -25 152 hintmask 11110000
          105 -74 rmoveto
          -78 77 vlineto
          128 58 34 108 hvcurveto
          71 -11 37 63 vvcurveto
          35 29 37 109 2 vhcurveto
          hintmask 11101000
          86 vlineto
          hintmask 11110000
          -109 2 -29 37 35 62 11 39 70 vvcurveto
          108 -58 34 -128 vhcurveto
          -77 -78 41 hlineto
          82 19 -14 -56 hvcurveto
          -53 -4 -51 -59 vvcurveto
          -76 28 -29 72 -12 vhcurveto
          -4 vlineto
          -72 -12 -28 -29 -76 -61 4 -48 -54 vvcurveto
          -56 -19 -14 -82 vhcurveto
          endchar
        </CharString>
        <CharString name="bracketleft">
          -152 78 704 78 hstem
          201 112 vstem
          201 -152 rmoveto
          295 78 -183 704 183 78 -295 hlineto
          endchar
        </CharString>
        <CharString name="bracketright">
          -152 78 704 78 hstem
          287 113 vstem
          105 -74 rmoveto
          -78 295 860 -295 -78 182 -704 vlineto
          endchar
        </CharString>
        <CharString name="breve">
          574 81 hstem
          153 82 130 82 vstem
          300 574 -61 callsubr
          2 143 callgsubr
        </CharString>
        <CharString name="brokenbar">
          157 callsubr
          312 rmoveto
          130 438 -130 hlineto
          -546 vmoveto
          -454 130 454 vlineto
          endchar
        </CharString>
        <CharString name="bullet">
          101 322 hstem
          136 328 vstem
          300 101 rmoveto
          93 71 69 92 92 -71 69 -93 -93 -71 -69 -92 -92 71 -69 93 hvcurveto
          endchar
        </CharString>
        <CharString name="c">
          -44 callgsubr
          hstem
          67 151 vstem
          -91 callsubr
          endchar
        </CharString>
        <CharString name="c.sups">
          252 82 180 83 hstem
          170 106 vstem
          170 424 rmoveto
          -109 77 -63 100 39 45 13 28 35 vhcurveto
          -41 65 rlineto
          -12 -19 -21 -12 -26 hhcurveto
          -48 -35 36 54 55 34 35 52 17 17 -6 -13 17 hvcurveto
          48 64 rlineto
          22 -24 -36 16 -45 hhcurveto
          -98 -88 -64 -109 hvcurveto
          endchar
        </CharString>
        <CharString name="cacute">
          -24 callsubr
          hstem
          67 151 vstem
          -91 callsubr
          431 493 -37 callgsubr
        </CharString>
        <CharString name="caron">
          574 167 hstem
          138 324 vstem
          238 574 -70 callgsubr
        </CharString>
        <CharString name="ccaron">
          -24 callsubr
          hstem
          67 151 vstem
          -91 callsubr
          212 326 166 callgsubr
          100 167 rlineto
          -107 hlineto
          -53 -96 166 callsubr
          96 rlineto
          -108 hlineto
          endchar
        </CharString>
        <CharString name="ccedilla">
          -221 59 174 -21 398 119 hstem
          67 151 102 106 vstem
          382 -10 rmoveto
          57 8 60 22 49 41 -60 93 rcurveline
          -25 -35 -44 -22 -52 hhcurveto
          -82 -57 55 86 86 59 55 85 37 35 -12 -27 38 hvcurveto
          68 91 rlineto
          39 -42 -66 28 -78 hhcurveto
          -153 -134 -95 -165 -148 96 -91 133 -18 hvcurveto
          -34 -67 rlineto
          7 callgsubr
          -34 11 vhcurveto
          endchar
        </CharString>
        <CharString name="ccircumflex">
          -24 callsubr
          hstem
          67 151 vstem
          -91 callsubr
          111 326 76 callsubr
        </CharString>
        <CharString name="cdotaccent">
          -44 callgsubr
          61 181 hstemhm
          67 151 25 196 hintmask 11110000
          -91 callsubr
          hintmask 11111000
          274 321 99 callgsubr
        </CharString>
        <CharString name="cedilla">
          181 callgsubr
          281 106 vstem
          223 -76 rmoveto
          45 -11 13 -14 -17 vvcurveto
          -26 -34 -13 -12 callgsubr
          94 114 callsubr
          -33 11 vhcurveto
          20 47 rlineto
          -86 hlineto
          endchar
        </CharString>
        <CharString name="cent">
          -41 696 hstem
          96 143 72 81 vstem
          311 182 rmoveto
          -47 20 -25 45 60 vvcurveto
          60 24 44 48 21 vhcurveto
          153 -226 rmoveto
          -20 -16 -24 -14 -28 -5 rrcurveto
          272 vlineto
          19 -2 18 -9 20 -16 67 90 rcurveline
          -29 30 -43 21 -52 5 rrcurveto
          93 -81 -97 vlineto
          -124 -21 -91 -89 -141 vvcurveto
          -145 85 -91 130 -17 vhcurveto
          -95 81 95 vlineto
          45 6 48 20 38 33 rrcurveto
          endchar
        </CharString>
        <CharString name="circumflex">
          574 167 hstem
          138 324 vstem
          138 574 -65 callgsubr
          endchar
        </CharString>
        <CharString name="colon">
          -12 235 88 125 callgsubr
          429 38 callgsubr
          -324 vmoveto
          102 callsubr
        </CharString>
        <CharString name="colonmonetary">
          10 -21 27 -21 538 114 -5 -20 25 -20 hstemhm
          79 147 99 50 40 49.5 hintmask 01100111
          356 533 rmoveto
          3 4 0 4 hhcurveto
          10 9 -1 -2 9 hvcurveto
          -50 -426 -14 3 -13 4 -12 7 rlinecurve
          -44 44 rmoveto
          -24 37 -12 53 67 vvcurveto
          99 27 70 51 29 vhcurveto
          178 -361 rmoveto
          -25 -29 -28 -17 -34 -6 48 408 rcurveline
          11 -7 10 -7 10 -8 81 79 rcurveline
          -28 29 -34 21 -35 13 13 113 rcurveline
          -50 hlineto
          -12 -100 rlineto
          1 -11 -10 1 -11 -3 -2 0 -3 hhcurveto
          12 98 rlineto
          -50 hlineto
          hintmask 01010111
          -12 -103 rlineto
          -146 -24 -94 -118 -186 vvcurveto
          -157 65 -103 99 -43 vhcurveto
          -14 -121 rlineto
          50 hlineto
          13 105 12 -2 13 -2 14 -2 rlinecurve
          hintmask 10001111
          -12 -99 rlineto
          50 hlineto
          12 99 72 5 60 32 50 54 rlinecurve
          endchar
        </CharString>
        <CharString name="comma">
          -217 432 -205 205 hstemhm
          312 117 hintmask 10100000
          219 -217 rmoveto
          138 42 72 91 127 vvcurveto
          hintmask 01100000
          52 callsubr
        </CharString>
        <CharString name="comma.dnom">
          1 90 callsubr
          -130 -17 callgsubr
        </CharString>
        <CharString name="comma.numr">
          263 90 callsubr
          131 rmoveto
          79 24 45 55 76 vvcurveto
          62 -26 35 -45 -36 -29 -25 -36 -38 30 -21 33 vhcurveto
          1 2 0 1 hhcurveto
          -39 -27 -21 -50 -17 vhcurveto
          endchar
        </CharString>
        <CharString name="comma.subs">
          -169 90 callsubr
          -300 -17 callgsubr
        </CharString>
        <CharString name="comma.sups">
          441 90 callsubr
          310 -17 callgsubr
        </CharString>
        <CharString name="copyright">
          -9 61 75 86 217 86 79 60 hstem
          19 64 56 106 272 64 vstem
          19 325 -19 callgsubr
          56 -1 rmoveto
          -121 73 -76 100 44 36 17 25 31 vhcurveto
          -47 68 rlineto
          -14 -19 -16 -10 -25 hhcurveto
          -44 -27 43 68 59 27 47 49 19 14 -9 -15 15 hvcurveto
          55 61 rlineto
          27 -27 -33 22 -52 hhcurveto
          -91 -82 -75 -117 hvcurveto
          endchar
        </CharString>
        <CharString name="currency">
          130 102 196 102 hstem
          83 131 172 131 vstem
          109 63 rmoveto
          90 91 rlineto
          -16 31 35 -8 35 hhcurveto
          34 36 8 16 31 hvcurveto
          90 -91 73 74 -82 82 rlineto
          22 30 13 37 44 vvcurveto
          43 -12 37 -22 29 vhcurveto
          81 82 -73 74 -89 -90 rlineto
          16 -32 -35 9 -35 hhcurveto
          -35 -36 -9 -16 -31 hvcurveto
          -89 90 -73 -74 80 -82 rlineto
          -21 -29 -12 -37 -43 vvcurveto
          -44 12 -37 22 -30 vhcurveto
          -81 -82 rlineto
          178 193 rmoveto
          59 38 39 48 48 38 -39 -59 -60 -38 -38 -48 -48 -38 38 60 vhcurveto
          endchar
        </CharString>
        <CharString name="d">
          -12 54 callsubr
          183 147 hintmask 01111100
          47 248 rmoveto
          hintmask 10111100
          -162 83 -98 126 50 51 27 36 37 vhcurveto
          3 hlineto
          hintmask 01111100
          11 -51 rlineto
          120 701 -147 -169 hlineto
          5 -77 rlineto
          32 -35 -35 21 -57 hhcurveto
          -108 -104 -98 -162 hvcurveto
          hintmask 10111100
          151 2 rmoveto
          94 46 44 54 29 27 -9 -24 27 vhcurveto
          -201 vlineto
          -33 -26 -28 -13 -33 hhcurveto
          -61 -35 44 98 hvcurveto
          endchar
        </CharString>
        <CharString name="d.sups">
          30 callgsubr
          128 424 rmoveto
          -107 55 -65 85 32 34 17 23 24 vhcurveto
          2 hlineto
          8 -32 rlineto
          84 462 -103 -111 hlineto
          3 -49 rlineto
          21 -22 -23 14 27 callgsubr
        </CharString>
        <CharString name="dagger">
          434 109.5 130 callsubr
          241 -80 rmoveto
          118 hlineto
          -9 518 161 -8 63 callgsubr
          8 rlineto
          endchar
        </CharString>
        <CharString name="daggerdbl">
          88.5 107.5 240 107.5 130 callsubr
          89 84 rmoveto
          161 9 -9 -173 rlineto
          118 hlineto
          -9 173 161 -9 rlineto
          118 vlineto
          -161 -12 9 126 -9 126 161 -12 63 callgsubr
          12 -9 -126 9 -126 -161 12 rlineto
          endchar
        </CharString>
        <CharString name="dcaron">
          -12 -70 callsubr
          40 153 -153 222 hstemhm
          25 150 184 147 34.5 90.5 hintmask 01110111
          25 248 rmoveto
          hintmask 10110111
          -162 82 -98 127 50 51 27 36 36 vhcurveto
          4 hlineto
          hintmask 01110111
          11 -51 rlineto
          120 701 -147 -169 hlineto
          5 -77 rlineto
          32 -35 -36 21 -56 hhcurveto
          -108 -104 -98 -162 hvcurveto
          hintmask 10110111
          150 2 rmoveto
          94 47 44 53 30 27 -9 -24 27 vhcurveto
          -201 vlineto
          -33 -26 -28 -13 -33 hhcurveto
          -61 -36 44 98 hvcurveto
          431 298 rmoveto
          hintmask 01101111
          24 153 2 69 rlineto
          -94 hlineto
          hintmask 01110111
          5 -222 rlineto
          endchar
        </CharString>
        <CharString name="dcroat">
          -12 120 -87 -21 368 120 68 71 -71 145 -27 callgsubr
          hintmask 10110110
          381 154 rmoveto
          -33 -26 -28 -13 -33 hhcurveto
          -61 -35 41 91 87 46 41 56 27 27 -10 -23 27 hvcurveto
          213 292 rmoveto
          -66 hlineto
          hintmask 01101110
          74 -147 vlineto
          hintmask 01110110
          -74 -155 vlineto
          hintmask 10101110
          -71 155 -44 vlineto
          5 -77 rlineto
          32 -35 -35 21 -57 hhcurveto
          -108 -104 -94 -156 -156 83 -94 126 50 51 27 36 37 hvcurveto
          3 hlineto
          hintmask 01110110
          11 -51 rlineto
          120 557 hlineto
          66 5 rlineto
          endchar
        </CharString>
        <CharString name="degree">
          398 70 147 71 hstem
          156 78 134 77 vstem
          301 398 rmoveto
          81 63 60 84 84 -63 60 -81 -81 -64 -60 -84 -84 64 -60 81 hvcurveto
          70 vmoveto
          -40 -27 30 44 43 27 30 40 40 27 -30 -43 -44 -27 -30 -40 hvcurveto
          endchar
        </CharString>
        <CharString name="dieresis">
          571 157 hstem
          112 157 62 157 vstem
          191 571 -80 callsubr
        </CharString>
        <CharString name="divide">
          73 154 51 104 51 154 hstem
          219 162 vstem
          300 433 rmoveto
          46 35 32 45 45 -35 32 -46 -46 -35 -32 -45 -45 35 -32 46 hvcurveto
          -81 -283 rmoveto
          -45 35 -32 46 46 35 32 45 45 -35 32 -46 -46 -35 -32 -45 vhcurveto
          -149 128 rmoveto
          138 callsubr
          endchar
        </CharString>
        <CharString name="dollar">
          -110 263 -263 855 -246 246 hstemhm
          91 141 23 98 30 140 hintmask 01001000
          513 533 rmoveto
          -41 42 -50 31 -69 9 rrcurveto
          hintmask 00101000
          130 -98 -131 vlineto
          hintmask 10111100
          -101 -16 -63 -61 -86 -184 292 15 -84 vvcurveto
          -28 -26 -17 -48 -63 -55 23 39 -63 vhcurveto
          -64 -100 rlineto
          hintmask 10001000
          50 -44 76 -28 65 -7 rrcurveto
          -146 98 149 vlineto
          hintmask 10111100
          111 19 59 67 84 182 -291 -9 71 vvcurveto
          30 24 16 45 55 37 -17 -33 47 vhcurveto
          endchar
        </CharString>
        <CharString name="dollar.a">
          34 119 346 119 hstem
          83 140 168 141 vstem
          335 250 rmoveto
          33 -14 23 -15 -23 vvcurveto
          -28 -26 -17 -48 vhcurveto
          -41 256 rmoveto
          -32 12 -21 13 19 vvcurveto
          30 25 16 44 vhcurveto
          87 -16 rmoveto
          20 -8 19 -12 22 -14 73 84 rcurveline
          -31 30 -36 25 -45 15 26 137 rcurveline
          -88 10 -25 -132 rlineto
          -4 -4 0 -4 hhcurveto
          -133 -86 -66 -101 -98 87 -41 82 -31 hvcurveto
          -21 -114 -34 11 -33 16 -36 21 rlinecurve
          -64 -100 39 -32 53 -24 52 -13 rlinecurve
          -28 -151 87 -10 28 149 rlineto
          153 84 76 99 98 -90 43 -83 29 hvcurveto
          endchar
        </CharString>
        <CharString name="dong">
          0 74 42 97 173 99 43 74 hstem
          91 124 154 121 vstem
          104 hmoveto
          419 74 -419 hlineto
          265 175 rmoveto
          -26 -25 -22 -10 -30 hhcurveto
          -47 -30 29 63 51 40 30 41 28 21 -7 -19 24 hvcurveto
          121 242 rmoveto
          49 -121 -49 -154 -74 154 -15 vlineto
          4 -67 rlineto
          26 -31 -27 13 -49 hhcurveto
          -86 -89 -67 -112 -122 67 -68 104 46 41 18 28 29 hvcurveto
          3 hlineto
          9 -36 rlineto
          100 402 hlineto
          72 6 rlineto
          68 vlineto
          endchar
        </CharString>
        <CharString name="dotaccent">
          569 188 callsubr
          569 -97 callsubr
        </CharString>
        <CharString name="dotlessi">
          74 callsubr
          -39 callgsubr
          endchar
        </CharString>
        <CharString name="e">
          -12 -50 callgsubr
          hstem
          413 133 vstem
          -107 callgsubr
          endchar
        </CharString>
        <CharString name="e.sups">
          252 78 66 63 59 79 -73 callgsubr
          endchar
        </CharString>
        <CharString name="eacute">
          56 callsubr
          167 hstem
          413 133 vstem
          -107 callgsubr
          57 439 -37 callgsubr
        </CharString>
        <CharString name="eacute.sups">
          252 78 66 63 59 79 42 111 -73 callgsubr
          46 291 rmoveto
          -107 hlineto
          -59 -111 rlineto
          76 hlineto
          endchar
        </CharString>
        <CharString name="ebreve">
          56 callsubr
          81 hstemhm
          165 82 131 82 -47 133 hintmask 11111010
          -107 callgsubr
          -100 272 rmoveto
          hintmask 11111100
          99 45 38 callsubr
          -19 33 42 -6 hvcurveto
          -82 hlineto
          hintmask 11111010
          -81 3 143 callgsubr
        </CharString>
        <CharString name="ecaron">
          56 callsubr
          167 hstem
          413 133 vstem
          -107 callgsubr
          -162 272 18 callsubr
        </CharString>
        <CharString name="ecircumflex">
          56 callsubr
          167 hstem
          413 133 vstem
          -107 callgsubr
          -263 272 -36 callgsubr
          endchar
        </CharString>
        <CharString name="edieresis">
          -12 -50 callgsubr
          63 157 hstemhm
          124 157 62 157 -87 133 hintmask 11111010
          -107 callgsubr
          -210 269 rmoveto
          13 callgsubr
          -46 -33 -34 -44 -45 33 -34 46 hvcurveto
          hintmask 11111100
          218 hmoveto
          46 33 34 45 44 -33 34 -46 -46 -32 -34 -44 -45 32 -34 46 hvcurveto
          endchar
        </CharString>
        <CharString name="edotaccent">
          -12 -50 callgsubr
          61 181 hstemhm
          215 195 3 133 hintmask 11100100
          -34 callsubr
          -100 267 -93 callgsubr
        </CharString>
        <CharString name="egrave">
          56 callsubr
          167 hstem
          413 133 vstem
          -107 callgsubr
          -126 272 51 callsubr
        </CharString>
        <CharString name="egrave.sups">
          252 78 66 63 59 79 42 111 -73 callgsubr
          -83 180 rmoveto
          75 hlineto
          -59 111 rlineto
          -106 hlineto
          endchar
        </CharString>
        <CharString name="eight">
          -71 callgsubr
        </CharString>
        <CharString name="eight.dnom">
          -12 68 198 21 callsubr
          87 -89 callsubr
        </CharString>
        <CharString name="eight.numr">
          312 68 197 21 callsubr
          411 rmoveto
          15 10 15 16 9 vhcurveto
          31 -9 23 -12 -21 vvcurveto
          -16 -17 -12 -23 -23 -17 12 19 vhcurveto
          hintmask 11011000
          53 106 rmoveto
          -27 9 -17 9 18 vvcurveto
          15 13 9 17 20 13 -11 -17 -11 -6 -12 -13 -9 vhcurveto
          hintmask 11100100
          -147 -115 rmoveto
          -49 55 -41 79 79 55 41 49 48 -26 20 -35 17 vhcurveto
          4 vlineto
          hintmask 11011000
          30 14 23 17 35 vvcurveto
          54 -55 36 -71 -68 -57 -36 -54 -40 22 -14 30 -19 vhcurveto
          -4 vlineto
          hintmask 11100100
          -30 -16 -31 -20 -42 vvcurveto
          endchar
        </CharString>
        <CharString name="eight.onum">
          -71 callgsubr
        </CharString>
        <CharString name="eight.subs">
          -182 68 198 21 callsubr
          -83 -89 callsubr
        </CharString>
        <CharString name="eight.sups">
          428 68 198 21 callsubr
          527 -89 callsubr
        </CharString>
        <CharString name="ellipsis">
          -12 192 hstem
          -1 184 25 184 25 184 vstem
          -1 84 rmoveto
          -54 37 -42 55 56 36 42 54 54 -36 42 -56 -55 -37 -42 -54 vhcurveto
          209 hmoveto
          -54 37 -42 55 55 37 42 54 54 -37 42 -55 -55 -37 -42 -54 vhcurveto
          209 hmoveto
          -54 36 -42 56 55 37 42 54 54 -37 42 -55 -56 -36 -42 -54 vhcurveto
          endchar
        </CharString>
        <CharString name="emacron">
          -12 -50 callgsubr
          84 93 hstemhm
          175 276 -38 133 hintmask 11110100
          -34 callsubr
          -238 290 -17 callsubr
        </CharString>
        <CharString name="emdash">
          83 callsubr
        </CharString>
        <CharString name="endash">
          83 callgsubr
        </CharString>
        <CharString name="eogonek">
          -210 87 111 -50 callgsubr
          hstemhm
          320 97 -4 133 hintmask 11110100
          478 134 rmoveto
          -22 -44 -39 -12 -45 hhcurveto
          -73 -61 31 74 -10 hvcurveto
          334 hlineto
          2 12 4 27 26 vvcurveto
          135 -80 103 -153 -132 -126 -98 -162 vhcurveto
          hintmask 11111000
          -164 121 -96 154 15 10 0 5 22 vhcurveto
          -26 -23 -31 -40 -49 vvcurveto
          -60 45 157 callgsubr
          -10 -12 -6 -13 hhcurveto
          -24 -19 12 26 39 20 30 89 62 hvcurveto
          -322 256 rmoveto
          hintmask 11110100
          64 13 46 30 53 hhcurveto
          67 30 -38 -56 hvcurveto
          endchar
        </CharString>
        <CharString name="equal">
          162 103 130 103 hstem
          70 460 vstem
          70 395 rmoveto
          460 103 -460 hlineto
          -336 vmoveto
          460 103 -460 hlineto
          endchar
        </CharString>
        <CharString name="estimated">
          -12 20 308 18 306 20 hstem
          26 130 290 128 vstem
          164 68 rmoveto
          -4 6 -4 6 8 vvcurveto
          224 vlineto
          2 2 2 2 vhcurveto
          414 hlineto
          2 0 4 2 vvcurveto
          186 -123 150 -151 -151 -123 -150 -186 -186 123 -150 151 90 78 52 80 54 vhcurveto
          -38 hlineto
          -68 -46 -66 -44 -70 hhcurveto
          -54 -50 22 38 -34 hvcurveto
          -4 266 rmoveto
          -2 -2 2 4 hvcurveto
          220 vlineto
          7 4 9 4 6 vhcurveto
          36 34 50 22 54 hhcurveto
          50 50 -20 -34 34 hvcurveto
          6 -6 4 -8 -8 vvcurveto
          -224 vlineto
          -4 -2 -2 -4 vhcurveto
          endchar
        </CharString>
        <CharString name="eth">
          -12 119 239 109 hstem
          47 134 232 137 vstem
          300 107 rmoveto
          -65 -54 42 79 80 45 38 72 43 37 -15 -39 34 hvcurveto
          1 -11 0 -11 -12 vvcurveto
          -100 -44 -51 -69 vhcurveto
          218 555 rmoveto
          -38 65 -136 -69 -45 32 -49 27 -51 23 rlinecurve
          -64 -89 35 -16 31 -17 28 -18 rlinecurve
          -120 -60 38 -65 149 75 47 -42 32 -48 19 -60 rlinecurve
          39 -32 -46 16 -48 hhcurveto
          -116 -105 -84 -143 -147 113 -93 135 160 95 117 161 152 -57 108 -86 80 hvcurveto
          endchar
        </CharString>
        <CharString name="exclam">
          -12 202 -181 -21 85 callgsubr
          252 255 rmoveto
          96 hlineto
          20 282 rlineto
          hintmask 01010000
          5 133 rlineto
          -146 hlineto
          5 -133 rlineto
          hintmask 10100000
          -32 -447 98 callsubr
        </CharString>
        <CharString name="exclamdown">
          306 202 0 -20 85 callgsubr
          348 241 rmoveto
          -96 hlineto
          -20 -282 rlineto
          hintmask 01010000
          -5 -133 rlineto
          146 hlineto
          -5 133 rlineto
          hintmask 10100000
          32 447 rmoveto
          60 -43 42 -57 -57 -43 -42 -60 -59 43 -41 57 57 43 41 59 vhcurveto
          endchar
        </CharString>
        <CharString name="f">
          74 callsubr
          101 116 hstem
          213 147 vstem
          585 686 rmoveto
          14 -42 -51 13 -57 hhcurveto
          -155 -67 -90 -114 hvcurveto
          -13 vlineto
          -131 -6 rlineto
          -109 131 -381 147 381 171 115 -171 14 vlineto
          60 30 27 63 38 35 -7 -12 31 vhcurveto
          endchar
        </CharString>
        <CharString name="f.sups">
          508 81 60 81 hstem
          257 103 vstem
          508 712 rmoveto
          9 -28 -34 9 -39 hhcurveto
          -105 -45 -57 -75 hvcurveto
          -9 vlineto
          -74 -4 rlineto
          -77 74 -248 103 248 111 81 -111 9 vlineto
          33 20 18 40 25 24 -5 -7 19 vhcurveto
          endchar
        </CharString>
        <CharString name="fi">
          21 132 callgsubr
          73 184 -156 116 0 -20 hstemhm
          73 147 158 203 -174 147 hintmask 1100101010000000
          73 495 rmoveto
          -66 -5 rlineto
          hintmask 1010101010000000
          63 callsubr
          hintmask 1010011010000000
          27 108 rlineto
          hintmask 1010101010000000
          8 -22 -36 10 -41 hhcurveto
          -134 -49 -86 -105 hvcurveto
          334 -522 rmoveto
          147 496 -147 hlineto
          hintmask 1011001100000000
          72 257 rmoveto
          -58 -43 -38 -54 -54 43 -38 58 59 43 38 54 54 -43 38 -59 hvcurveto
          endchar
        </CharString>
        <CharString name="figuredash">
          83 callgsubr
        </CharString>
        <CharString name="five">
          -12 119 197 103 104 124 hstem
          105.5 130 149.5 147 vstem
          46 77 rmoveto
          170 callgsubr
          81 141 135 -101 62 -117 -32 -23 -4 -11 -29 hvcurveto
          11 119 rlineto
          262 124 -389 hlineto
          -17 -321 175 callsubr
          -34 -64 -65 -51 -34 -72 -60 -48 28 35 -42 hvcurveto
          endchar
        </CharString>
        <CharString name="five.dnom">
          -12 53 callgsubr
          30 -64 callgsubr
        </CharString>
        <CharString name="five.numr">
          312 78 72 57 29 87 hstemhm
          201 85 46 104 hintmask 10111000
          165 353 rmoveto
          -34 47 45 -7 45 hhcurveto
          77 57 48 62 hvcurveto
          hintmask 11111000
          61 -43 36 -66 -14 -19 -3 -4 -10 vhcurveto
          hintmask 10111000
          4 36 rlineto
          133 87 -213 hlineto
          hintmask 11111000
          -14 -161 43 -28 rlineto
          10 18 13 6 20 hhcurveto
          25 19 -12 -25 -23 -20 -12 -24 164 callgsubr
          endchar
        </CharString>
        <CharString name="five.onum">
          -90 118 -8 -21 240 103 113 123 hstemhm
          105.5 130 149.5 147 hintmask 01111100
          46 -1 rmoveto
          hintmask 10111100
          170 callgsubr
          84 146 141 -101 61 -117 -32 -23 -3 -12 -29 hvcurveto
          11 128 rlineto
          262 123 -389 hlineto
          -17 -329 175 callsubr
          -33 -70 -71 -51 -37 -72 -60 -48 29 35 -42 hvcurveto
          endchar
        </CharString>
        <CharString name="five.subs">
          -182 53 callgsubr
          -140 -64 callgsubr
        </CharString>
        <CharString name="five.sups">
          428 53 callgsubr
          470 -64 callgsubr
        </CharString>
        <CharString name="fiveeighths">
          -12 68 198 70 -12 78 72 57 29 87 hstemhm
          74 85 46 104 -15 94 -85 94 63 94 -85 94 hintmask 1010111000100000
          38 353 rmoveto
          -34 47 45 -7 45 hhcurveto
          77 57 48 62 hvcurveto
          hintmask 0001011000000000
          61 -43 36 -66 -14 -19 -3 -4 -10 vhcurveto
          hintmask 0000110000000000
          4 36 rlineto
          133 87 -213 hlineto
          hintmask 0011011000000000
          -14 -161 43 -28 rlineto
          10 18 14 6 20 hhcurveto
          24 19 -12 -25 -23 -19 -12 -25 -29 -31 14 15 -22 -78 callsubr
        </CharString>
        <CharString name="fl">
          -12 119 -98 -21 33 132 callgsubr
          101 116 -12 -20 32 -20 hstemhm
          77 147 169 147 hintmask 0011010011000000
          77 495 rmoveto
          -66 -5 rlineto
          hintmask 0010110011000000
          63 callsubr
          hintmask 0010100111000000
          27 108 rlineto
          hintmask 1000110011000000
          8 -22 -36 10 -41 hhcurveto
          -134 -49 -86 -105 hvcurveto
          508 -413 rmoveto
          -2 -9 -4 0 -5 hhcurveto
          -12 -15 10 31 hvcurveto
          hintmask 0100101011000000
          553 -147 -547 vlineto
          -100 34 -66 101 34 24 5 7 16 vhcurveto
          endchar
        </CharString>
        <CharString name="four">
          21 -21 152 112 246 125 hstem
          341 137 vstem
          177 264 rmoveto
          96 138 22 36 26 36 21 36 rlinecurve
          4 hlineto
          -2 -40 -3 -59 -40 vvcurveto
          -107 vlineto
          217 hmoveto
          -80 371 -178 hlineto
          -265 -382 rlineto
          -101 306 -152 137 152 80 vlineto
          endchar
        </CharString>
        <CharString name="four.dnom">
          61 105 callgsubr
          127 -32 callgsubr
        </CharString>
        <CharString name="four.numr">
          384 66 122 63 hstem
          321 94 vstem
          256 450 rmoveto
          33 60 34 62 2 callsubr
          -6 -100 48 callgsubr
          -120 -199 rlineto
          -52 160 -60 94 60 51 vlineto
          endchar
        </CharString>
        <CharString name="four.onum">
          83 112 259 124 hstem
          341 137 vstem
          177 195 rmoveto
          97 149 23 36 24 37 21 37 rlinecurve
          4 hlineto
          -2 -41 -3 -58 -41 vvcurveto
          -119 vlineto
          217 hmoveto
          -80 383 -178 hlineto
          -265 -394 rlineto
          -101 306 -161 137 161 80 vlineto
          endchar
        </CharString>
        <CharString name="four.subs">
          -109 105 callgsubr
          -43 -32 callgsubr
        </CharString>
        <CharString name="four.sups">
          501 105 callgsubr
          567 -32 callgsubr
        </CharString>
        <CharString name="fraction">
          28 596 hstem
          17 566 vstem
          92 28 -92 callgsubr
          endchar
        </CharString>
        <CharString name="g">
          -42 callsubr
          -22 callgsubr
          166 129 -58 140 hintmask 1111010001000000
          -99 callgsubr
          hintmask 1111000110000000
          -91 callgsubr
          hintmask 1110101010000000
          8 -24 -28 4 -30 hhcurveto
          -112 -100 -61 -119 -58 29 -45 36 -24 hvcurveto
          -4 vlineto
          hintmask 1111000110000000
          -35 -24 -24 -36 -33 vvcurveto
          -42 23 -26 27 -17 vhcurveto
          -4 vlineto
          hintmask 1111010001000000
          -51 -25 -26 -34 -40 vvcurveto
          hintmask 1110101010000000
          -74 callgsubr
          endchar
        </CharString>
        <CharString name="g.a">
          -67 callgsubr
        </CharString>
        <CharString name="g.supa">
          134 79 56 82 162 84 hstem
          128 106 115 103 vstem
          184 237 rmoveto
          -35 -67 rlineto
          -25 39 53 -11 36 hhcurveto
          111 64 46 85 hvcurveto
          324 -83 vlineto
          -8 -31 rlineto
          -2 hlineto
          27 -25 -30 12 -32 hhcurveto
          -70 -74 -67 -100 -94 56 -67 83 31 31 12 20 22 hvcurveto
          -2 -38 rlineto
          -29 -2 -22 -21 -48 hhcurveto
          -26 -36 8 16 -31 hvcurveto
          111 114 rmoveto
          -36 -25 29 51 54 29 28 30 18 21 -6 -14 17 hvcurveto
          -113 vlineto
          -21 -16 -18 -8 -20 hhcurveto
          endchar
        </CharString>
        <CharString name="g.sups">
          122 64 60 78 39 63 88 75 -61 69 hstemhm
          133 85 -71 97 -93 82 105 91 -43 98 hintmask 1111010001000000
          218 221 rmoveto
          11 6 9 15 9 vhcurveto
          -2 12 14 -2 24 hhcurveto
          40 hlineto
          36 21 -4 -19 -21 -36 -16 -51 -49 -32 11 24 hvcurveto
          -85 -16 rmoveto
          -59 65 -24 86 122 78 49 70 59 -49 24 -88 vhcurveto
          hintmask 1111000110000000
          -60 hlineto
          -38 -16 7 17 10 4 5 9 7 hvcurveto
          -4 17 14 -3 13 hhcurveto
          79 60 34 77 15 -6 16 -7 9 hvcurveto
          65 75 -135 hlineto
          5 -16 -20 3 -20 hhcurveto
          hintmask 1111001010000000
          -75 -68 -40 -80 -38 19 -30 26 -17 hvcurveto
          -2 vlineto
          hintmask 1111000110000000
          -25 -16 -16 -24 -21 vvcurveto
          -28 15 -17 19 -11 vhcurveto
          -3 vlineto
          hintmask 1111010001000000
          -34 -17 -18 -22 -26 vvcurveto
          hintmask 1110101010000000
          157 221 rmoveto
          -25 -21 16 35 33 21 18 25 26 22 -18 -33 -35 -22 -16 -26 hvcurveto
          endchar
        </CharString>
        <CharString name="gbreve">
          -42 callsubr
          66 81 -22 callgsubr
          -38 82 122 129 -120 82 -20 140 hintmask 1111011000001000
          -101 callsubr
          hintmask 1111011000001000
          -51 -25 -26 -34 -40 vvcurveto
          hintmask 1110110100100000
          -74 callgsubr
          hintmask 1111010001010000
          19 328 42 callgsubr
        </CharString>
        <CharString name="gbreve.a">
          -50 callsubr
          98 81 hstemhm
          47 149 -34 82 131 82 -76 147 hintmask 1101110010000000
          -87 callsubr
          hintmask 1110110010000000
          -96 callsubr
          hintmask 1101110010000000
          -41 -55 11 26 -47 hvcurveto
          167 175 rmoveto
          -58 -40 46 82 hvcurveto
          hintmask 1110110010000000
          83 50 46 50 31 27 -9 -24 27 vhcurveto
          -176 vlineto
          hintmask 1101110010000000
          -35 -27 -28 -13 -32 hhcurveto
          hintmask 1101101100000000
          15 443 42 callgsubr
        </CharString>
        <CharString name="gcaron">
          -88 callgsubr
          -43 328 rmoveto
          124 35 callsubr
        </CharString>
        <CharString name="gcaron.a">
          -68 callsubr
          -46 443 rmoveto
          123 35 callsubr
        </CharString>
        <CharString name="gcircumflex">
          -88 callgsubr
          -143 328 rmoveto
          107 hlineto
          53 95 2 callsubr
          54 -95 rlineto
          107 hlineto
          -101 48 callsubr
          endchar
        </CharString>
        <CharString name="gcircumflex.a">
          -68 callsubr
          -147 443 82 callsubr
        </CharString>
        <CharString name="gdotaccent">
          -42 callsubr
          61 181 -22 callgsubr
          12 195 -41 129 -58 140 hintmask 1111011000010000
          -101 callsubr
          hintmask 1111011000010000
          -51 -25 -26 -34 -40 vvcurveto
          hintmask 1110110100100000
          -74 callgsubr
          hintmask 1111010001000000
          19 323 -73 callsubr
        </CharString>
        <CharString name="gdotaccent.a">
          -50 callsubr
          93 181 hstemhm
          47 149 16 195 -26 -90 callsubr
          hintmask 11011110
          15 438 -73 callsubr
        </CharString>
        <CharString name="germandbls">
          -12 109 -97 25 -4 -21 597 116 hstemhm
          61 147 72 136 -76 137 -42 136 hintmask 00111010
          61 hmoveto
          147 486 hlineto
          68 25 43 54 33 20 -27 -34 vhcurveto
          hintmask 00111100
          -77 -60 -29 -80 vvcurveto
          hintmask 10011001
          -132 155 -2 -76 vvcurveto
          -26 -17 -17 -26 -27 -27 8 20 -31 vhcurveto
          hintmask 01011010
          -49 -100 rlineto
          hintmask 10011001
          -24 45 39 -13 55 hhcurveto
          114 60 73 91 hvcurveto
          hintmask 00111100
          145 -155 5 66 vvcurveto
          hintmask 00111010
          51 61 30 95 vvcurveto
          86 -60 83 -129 -153 -74 -94 -124 vhcurveto
          endchar
        </CharString>
        <CharString name="grave">
          574 167 hstem
          143 239 vstem
          275 574 10 callsubr
        </CharString>
        <CharString name="greater">
          31 602 hstem
          363 121 vstem
          484 383 rmoveto
          -386 250 rlineto
          -133 vlineto
          265 -166 rlineto
          -4 vlineto
          -265 -166 rlineto
          -133 vlineto
          386 250 rlineto
          endchar
        </CharString>
        <CharString name="greaterequal">
          0 104 hstemhm
          70 460 -149 149 hintmask 11000000
          70 hmoveto
          138 callsubr
          hintmask 10100000
          460 314 rmoveto
          -460 142 rlineto
          -121 vlineto
          172 -46 139 -34 rlineto
          -4 vlineto
          -139 -34 -172 -46 rlineto
          -121 vlineto
          460 142 rlineto
          endchar
        </CharString>
        <CharString name="guillemotleft">
          25 454 hstem
          42 499 vstem
          213 25 20 callsubr
          437 -154 20 callsubr
          endchar
        </CharString>
        <CharString name="guillemotright">
          25 454 hstem
          59 499 vstem
          59 80 17 callsubr
          139 -172 17 callsubr
          endchar
        </CharString>
        <CharString name="guilsinglleft">
          25 454 hstem
          175 233 vstem
          346 25 20 callsubr
          endchar
        </CharString>
        <CharString name="guilsinglright">
          25 454 hstem
          192 233 vstem
          192 80 17 callsubr
          endchar
        </CharString>
        <CharString name="h">
          21 80 callgsubr
          193 -20 hstem
          45 callgsubr
          vstem
          -67 callsubr
          endchar
        </CharString>
        <CharString name="h.sups">
          26 callsubr
          -32 52 -75 -48 -35 -24 -23 -24 vhcurveto
          5 60 rlineto
          112 -104 vlineto
          endchar
        </CharString>
        <CharString name="hbar">
          21 -21 363 125 68 87 callsubr
          145 hstemhm
          45 callgsubr
          hintmask 11001110
          219 509 rmoveto
          47 182 vlineto
          hintmask 11010110
          71 -182 vlineto
          hintmask 11001110
          74 -147 vlineto
          hintmask 11100110
          -75 vlineto
          -66 -5 rlineto
          hintmask 11001110
          -65 66 -556 147 311 vlineto
          34 35 26 18 40 hhcurveto
          54 19 -30 -66 hvcurveto
          -267 147 286 vlineto
          125 -50 77 -111 -75 -54 -36 -38 -39 vhcurveto
          endchar
        </CharString>
        <CharString name="hcircumflex">
          21 80 callgsubr
          193 -20 69 120 hstem
          45 callgsubr
          vstem
          -67 callsubr
          22 49 rmoveto
          53 60 2 callsubr
          54 -60 -43 callsubr
          endchar
        </CharString>
        <CharString name="hungarumlaut">
          573 151 hstem
          175 356 vstem
          175 573 6 callsubr
        </CharString>
        <CharString name="hyphen">
          28 callsubr
        </CharString>
        <CharString name="hyphen.a">
          68 callgsubr
        </CharString>
        <CharString name="i">
          74 callsubr
          73 181 hstemhm
          247 196 -165 147 hintmask 11101000
          -76 callsubr
          hintmask 11110000
          21 callgsubr
          endchar
        </CharString>
        <CharString name="i.sups">
          508 81 45 124 hstemhm
          277 136 -119 104 hintmask 10010000
          169 508 rmoveto
          125 -248 104 329 -229 hlineto
          hintmask 11100000
          77 callgsubr
        </CharString>
        <CharString name="iacute">
          -49 callsubr
          424 68 callsubr
        </CharString>
        <CharString name="icircumflex">
          -49 callsubr
          104 78 -65 callgsubr
          endchar
        </CharString>
        <CharString name="idieresis">
          74 callsubr
          75 157 hstemhm
          157 157 -36 147 -49 157 hintmask 11101000
          -76 callsubr
          hintmask 11110100
          157 75 -80 callsubr
        </CharString>
        <CharString name="igrave">
          -49 callsubr
          241 78 10 callsubr
        </CharString>
        <CharString name="imacron">
          74 callsubr
          96 93 hstemhm
          207 276 -205 147 hintmask 11101000
          -76 callsubr
          hintmask 11110000
          128 96 -17 callsubr
        </CharString>
        <CharString name="infinity">
          121 136 -110 107 125 136 -91 107 hstemhm
          -13 107 412 107 hintmask 01011100
          130 147 rmoveto
          61 43 34 50 30 hvcurveto
          4 hlineto
          hintmask 10011100
          -85 54 49 -25 71 hhcurveto
          96 75 79 140 110 -73 81 -90 -68 -48 -30 -70 -46 hvcurveto
          -4 hlineto
          hintmask 10101100
          53 -30 -42 31 -62 hhcurveto
          -97 -66 -73 -125 hvcurveto
          hintmask 01011100
          -90 63 -80 80 vhcurveto
          hintmask 10011100
          199 203 rmoveto
          51 30 33 23 35 hhcurveto
          48 31 -33 -54 -43 -27 -37 -45 -45 -30 31 62 -30 hvcurveto
          hintmask 01101100
          -178 -96 rmoveto
          -34 -23 32 34 34 18 25 34 29 27 -18 -49 22 hvcurveto
          -41 -19 -24 -17 -30 hhcurveto
          endchar
        </CharString>
        <CharString name="integral">
          -158 110 729 110 hstemhm
          222 133 -95 132 hintmask 11010000
          161 -44 rmoveto
          -14 -106 rlineto
          -4 11 22 -4 24 hhcurveto
          157 31 106 141 hvcurveto
          hintmask 11100000
          165 -37 141 153 vvcurveto
          94 11 39 52 14 12 -1 -3 9 vhcurveto
          15 107 rlineto
          3 -11 -23 4 -23 hhcurveto
          -157 -32 -106 -141 hvcurveto
          hintmask 11010000
          -165 38 -141 -153 vvcurveto
          -95 -11 -38 -52 -14 -12 2 2 -10 vhcurveto
          endchar
        </CharString>
        <CharString name="iogonek">
          -210 87 144 110 callgsubr
          73 181 hstemhm
          247 196 -188 99 -76 147 hintmask 11110010
          278 hmoveto
          hintmask 11110100
          111 callgsubr
          hintmask 11110010
          50 callsubr
          hintmask 11111000
          67 188 -97 callsubr
        </CharString>
        <CharString name="iogonek.d">
          -210 87 144 110 callgsubr
          hstemhm
          255 99 -76 147 hintmask 11101000
          278 hmoveto
          hintmask 11110000
          111 callgsubr
          hintmask 11101000
          50 callsubr
          endchar
        </CharString>
        <CharString name="itilde">
          74 callsubr
          79 91 -91 143 hstemhm
          278 147 hintmask 11011000
          -76 callsubr
          95 79 23 callgsubr
          hintmask 11101000
          65 callsubr
          hintmask 11011000
          14 callgsubr
          hintmask 11101000
          32 callsubr
          hintmask 11011000
          139 callgsubr
          2 callgsubr
        </CharString>
        <CharString name="j">
          -196 115 462 115 73 181 hstemhm
          247 196 -165 147 hintmask 11101000
          -40 callsubr
          hintmask 11110000
          21 callgsubr
          endchar
        </CharString>
        <CharString name="j.sups">
          132 81 295 81 45 124 hstemhm
          265 136 -118 103 hintmask 11101000
          157 508 rmoveto
          126 -229 hlineto
          -46 -15 -20 -45 -16 -19 3 12 -25 vhcurveto
          -30 -73 rlineto
          -13 27 31 -10 39 hhcurveto
          122 34 71 80 hvcurveto
          306 -229 vlineto
          hintmask 11110000
          77 callgsubr
        </CharString>
        <CharString name="jcircumflex">
          -196 115 462 115 78 167 hstem
          278 147 vstem
          -40 callsubr
          104 78 -65 callgsubr
          endchar
        </CharString>
        <CharString name="k">
          21 66 callsubr
          225 -20 hstem
          76 147 16 callsubr
          endchar
        </CharString>
        <CharString name="k.sups">
          260 329 -329 462 hstemhm
          160 104 hintmask 01100000
          160 260 rmoveto
          104 81 hlineto
          45 44 rlineto
          hintmask 10100000
          81 -125 rlineto
          112 hlineto
          -133 193 124 136 rlineto
          -113 hlineto
          -114 -125 rlineto
          -2 258 -104 hlineto
          endchar
        </CharString>
        <CharString name="kgreenlandic">
          21 66 callsubr
          hstem
          76 147 vstem
          76 hmoveto
          147 123 hlineto
          74 72 129 -195 rlineto
          159 hlineto
          -203 292 188 204 rlineto
          -161 hlineto
          -183 -196 -3 -1 rlineto
          197 -147 vlineto
          endchar
        </CharString>
        <CharString name="l">
          -12 95 callgsubr
          hstem
          206 147 vstem
          -93 callsubr
          endchar
        </CharString>
        <CharString name="l.sups">
          252 82 307 81 hstem
          250 104 vstem
          182 641 rmoveto
          68 -251 hlineto
          -83 38 -55 90 37 21 5 8 30 vhcurveto
          -17 80 rlineto
          -7 -18 -13 -4 -13 hhcurveto
          -31 -20 12 40 hvcurveto
          336 -172 vlineto
          endchar
        </CharString>
        <CharString name="lacute">
          -12 95 callgsubr
          56 120 hstem
          206 147 vstem
          -93 callsubr
          365 176 -60 callsubr
          endchar
        </CharString>
        <CharString name="lcaron">
          -12 119 441 222 -185 116 hstemhm
          206 147 58.5 91 hintmask 10111000
          -93 callsubr
          hintmask 11011000
          415 -153 rmoveto
          25 153 1 129 callsubr
        </CharString>
        <CharString name="ldot">
          -12 119 155 181 142 116 hstem
          156 147 70 196 vstem
          12 585 rmoveto
          144 -391 hlineto
          -126 65 -80 124 62 36 11 16 51 vhcurveto
          -33 108 rlineto
          -12 -31 -23 -4 -23 hhcurveto
          -42 -39 20 61 hvcurveto
          513 -291 vlineto
          459 -439 rmoveto
          57 41 36 54 54 -41 37 -57 -57 -41 -37 -54 -54 41 -36 57 hvcurveto
          endchar
        </CharString>
        <CharString name="less">
          31 602 hstem
          116 121 vstem
          116 281 rmoveto
          386 -250 rlineto
          133 vlineto
          -265 166 rlineto
          4 vlineto
          265 166 rlineto
          133 vlineto
          -386 -250 rlineto
          endchar
        </CharString>
        <CharString name="lessequal">
          0 104 hstemhm
          70 149 -149 460 hintmask 10100000
          70 hmoveto
          138 callsubr
          hintmask 11000000
          192 vmoveto
          460 -142 rlineto
          121 vlineto
          -172 46 -139 34 rlineto
          4 vlineto
          139 34 172 46 rlineto
          121 vlineto
          -460 -142 rlineto
          endchar
        </CharString>
        <CharString name="lira">
          0 124 93 74 48 75 114 119 hstem
          135 139 vstem
          258 124 rmoveto
          4 vlineto
          31 29 16 26 5 34 rrcurveto
          146 74 -149 hlineto
          -4 16 -5 16 -4 16 rrcurveto
          162 75 -181 hlineto
          -1 7 0 6 7 62 callgsubr
          -9 1 -10 2 -10 hvcurveto
          -67 -5 rlineto
          -69 91 vlineto
          6 -16 6 -16 4 -16 rrcurveto
          -28 hlineto
          -79 -5 rlineto
          -69 112 vlineto
          -11 -58 -45 -45 -60 -23 rrcurveto
          -91 483 124 vlineto
          endchar
        </CharString>
        <CharString name="logicalnot">
          278 104 hstem
          422 108 vstem
          70 278 rmoveto
          352 -184 108 288 -460 hlineto
          endchar
        </CharString>
        <CharString name="lozenge">
          -10 123 434 123 hstem
          78 444 vstem
          240 -10 rmoveto
          120 hlineto
          162 340 -162 340 120 callgsubr
          -162 -340 rlineto
          220 -217 rmoveto
          -54 121 -45 96 45 96 54 121 2 callsubr
          54 -121 45 -96 -45 -96 -54 -121 rlineto
          endchar
        </CharString>
        <CharString name="lslash">
          -12 95 callgsubr
          hstem
          206 147 vstem
          511 123 rmoveto
          -12 -31 -24 -4 -23 hhcurveto
          -41 -39 20 61 hvcurveto
          161 vlineto
          148 81 rlineto
          117 vlineto
          -148 -80 rlineto
          234 -291 -116 144 -191 vlineto
          -113 -64 rlineto
          -117 vlineto
          113 63 rlineto
          -82 vlineto
          -126 64 -80 125 62 35 11 16 52 vhcurveto
          endchar
        </CharString>
        <CharString name="m">
          21 24 callsubr
          32 -20 hstemhm
          36 138 74 113 74 138 cntrmask 00001110
          hintmask 10011110
          36 hmoveto
          138 hlineto
          hintmask 11001110
          -19 callsubr
          hintmask 10101110
          -11 62 rlineto
          -110 hlineto
          endchar
        </CharString>
        <CharString name="m.sups">
          260 337 -88 88 hstemhm
          115 98 44 80 43 99 hintmask 10111000
          115 260 rmoveto
          98 hlineto
          hintmask 01111000
          219 vlineto
          20 8 8 10 11 hhcurveto
          12 5 -8 -18 hvcurveto
          -223 80 219 vlineto
          20 8 9 10 11 hhcurveto
          11 4 -8 -18 hvcurveto
          -223 99 230 vlineto
          65 -28 42 -46 -38 -24 -25 -29 -11 vhcurveto
          35 -8 -21 19 -29 hhcurveto
          -38 -20 -23 -26 -13 hvcurveto
          -2 hlineto
          -8 41 rlineto
          -78 hlineto
          endchar
        </CharString>
        <CharString name="macron">
          19 callgsubr
        </CharString>
        <CharString name="minus">
          28 callsubr
        </CharString>
        <CharString name="multiply">
          112 435 hstem
          84 432 vstem
          157 112 rmoveto
          143 144 143 -144 73 74 -142 143 142 144 -73 74 -143 -144 -143 144 -73 -74 142 -144 -142 -143 rlineto
          endchar
        </CharString>
        <CharString name="n">
          21 24 callsubr
          hstemhm
          45 callgsubr
          hintmask 10111000
          72 hmoveto
          147 hlineto
          hintmask 11011000
          -92 callsubr
          hintmask 10111000
          -11 66 120 callgsubr
          endchar
        </CharString>
        <CharString name="n.sups">
          26 callsubr
          -33 52 -74 -49 -34 -24 -26 -28 vhcurveto
          -3 hlineto
          -7 42 rlineto
          -85 hlineto
          endchar
        </CharString>
        <CharString name="nacute">
          21 24 callsubr
          98 167 hstemhm
          45 callgsubr
          hintmask 10111100
          72 hmoveto
          147 hlineto
          hintmask 11011100
          -92 callsubr
          hintmask 10111100
          -11 66 120 callgsubr
          401 68 callsubr
        </CharString>
        <CharString name="napostrophe">
          21 24 callsubr
          28 193 hstemhm
          66 102 48 147 134 147 hintmask 10101110
          -7 290 rmoveto
          117 53 58 85 109 vvcurveto
          hintmask 10111110
          100 -43 60 -75 -55 -40 -40 -61 -55 37 -37 54 6 7 1 1 7 vhcurveto
          -5 -62 -38 -45 -69 -31 rrcurveto
          hintmask 10101110
          393 64 rmoveto
          -11 64 rlineto
          -120 -496 147 hlineto
          hintmask 11001110
          333 vlineto
          32 29 18 18 32 hhcurveto
          40 15 -29 -65 hvcurveto
          -289 147 308 vlineto
          124 -44 76 -99 vhcurveto
          hintmask 10101110
          -66 -45 -35 -41 -39 hvcurveto
          endchar
        </CharString>
        <CharString name="nbspace.frac">
          endchar
        </CharString>
        <CharString name="ncaron">
          21 24 callsubr
          98 167 hstemhm
          45 callgsubr
          hintmask 10111100
          72 hmoveto
          147 hlineto
          hintmask 11011100
          -92 callsubr
          hintmask 10111100
          -11 66 120 callgsubr
          181 78 -70 callgsubr
        </CharString>
        <CharString name="nine">
          -12 119 131 104 195 148 callsubr
          342 rmoveto
          -57 -38 27 65 72 47 31 50 50 49 -32 -100 16 hvcurveto
          -46 -39 -41 -17 -37 hhcurveto
          -220 -278 rmoveto
          -40 44 69 -36 90 hhcurveto
          140 133 107 237 190 callsubr
          -81 -132 -134 86 -62 111 47 60 26 44 46 hvcurveto
          -150 -6 -68 -51 -77 hhcurveto
          -42 -44 21 24 -26 hvcurveto
          endchar
        </CharString>
        <CharString name="nine.dnom">
          -12 65 callgsubr
          212 -68 callgsubr
        </CharString>
        <CharString name="nine.numr">
          312 78 52 63 63 79 hstem
          164 94 84 97 vstem
          258 536 rmoveto
          20 13 12 22 18 22 -10 -35 8 vhcurveto
          -12 -15 -16 -6 -15 hhcurveto
          -24 -13 11 20 hvcurveto
          -92 -184 rmoveto
          -24 29 36 -16 44 hhcurveto
          107 57 78 90 98 -56 69 -94 -72 -53 -50 -62 -61 39 -32 60 32 26 9 18 21 hvcurveto
          -44 -5 -19 -35 -51 hhcurveto
          -24 -19 9 14 -17 hvcurveto
          endchar
        </CharString>
        <CharString name="nine.onum">
          -90 118 133 104 215 148 callsubr
          265 rmoveto
          -57 -38 35 71 78 47 31 50 53 51 -35 -113 13 hvcurveto
          -49 -39 -43 -18 -37 hhcurveto
          -220 -279 rmoveto
          -41 44 69 -35 90 hhcurveto
          140 133 111 254 190 callsubr
          -82 -137 -141 86 -69 111 46 60 25 45 47 hvcurveto
          -154 -11 -66 -49 -74 hhcurveto
          -42 -44 22 24 -26 hvcurveto
          endchar
        </CharString>
        <CharString name="nine.subs">
          -182 65 callgsubr
          42 -68 callgsubr
        </CharString>
        <CharString name="nine.sups">
          428 65 callgsubr
          652 -68 callgsubr
        </CharString>
        <CharString name="notequal">
          162 103 130 103 hstem
          70 460 vstem
          88 40 rmoveto
          93 hlineto
          72 122 rlineto
          277 103 -220 hlineto
          73 130 rlineto
          147 103 -89 hlineto
          71 122 rlineto
          -93 hlineto
          -72 -122 rlineto
          -277 -103 220 hlineto
          -73 -130 rlineto
          -147 -103 89 hlineto
          endchar
        </CharString>
        <CharString name="ntilde">
          21 24 callsubr
          99 91 -91 143 hstemhm
          45 callgsubr
          hintmask 10101110
          72 hmoveto
          147 hlineto
          hintmask 11001110
          -92 callsubr
          hintmask 10101110
          -11 66 120 callgsubr
          72 79 23 callgsubr
          hintmask 10110110
          65 callsubr
          hintmask 10101110
          14 callgsubr
          hintmask 10110110
          32 callsubr
          hintmask 10101110
          139 callgsubr
          2 callgsubr
        </CharString>
        <CharString name="numbersign">
          21 -21 187 94 110 94 hstem
          70 464 vstem
          122 hmoveto
          85 hlineto
          23 187 rlineto
          103 hlineto
          -22 -187 rlineto
          85 hlineto
          23 187 rlineto
          95 94 -84 hlineto
          13 110 rlineto
          91 94 -79 170 callsubr
          -104 170 callsubr
          -91 -94 79 hlineto
          -14 -110 rlineto
          -85 -94 74 hlineto
          97 94 rmoveto
          13 110 rlineto
          104 hlineto
          -14 -110 rlineto
          endchar
        </CharString>
        <CharString name="o">
          -44 callgsubr
          hstem
          58 callgsubr
          vstem
          -105 callsubr
          endchar
        </CharString>
        <CharString name="o.sups">
          -12 callsubr
        </CharString>
        <CharString name="oacute">
          -24 callsubr
          hstem
          58 callgsubr
          vstem
          -105 callsubr
          259 493 -37 callgsubr
        </CharString>
        <CharString name="ocircumflex">
          -24 callsubr
          hstem
          58 callgsubr
          vstem
          -105 callsubr
          -60 326 -65 callgsubr
          endchar
        </CharString>
        <CharString name="odieresis">
          -44 callgsubr
          63 157 61 callsubr
          -86 157 62 157 -86 151 hintmask 11110010
          -105 callsubr
          hintmask 11101100
          -7 323 -80 callsubr
        </CharString>
        <CharString name="oe">
          -12 115 -115 118 99 90 95 118 -112 112 hstemhm
          12 132 118 100 114 116 hintmask 01110111
          144 248 rmoveto
          86 20 56 42 36 20 -56 -86 -86 -20 -56 -36 -42 -20 56 86 vhcurveto
          -132 hmoveto
          -165 81 -95 102 59 37 27 50 29 vhcurveto
          -49 29 47 -28 52 hhcurveto
          41 51 17 30 38 hvcurveto
          hintmask 10110111
          -50 94 rlineto
          -18 -26 -22 -8 -26 hhcurveto
          -47 -32 34 68 -11 hvcurveto
          222 hlineto
          4 22 2 15 27 vvcurveto
          130 -55 109 -99 -49 -43 -31 -55 -27 vhcurveto
          52 -24 -40 34 -57 hhcurveto
          hintmask 01110111
          -102 -84 -95 -165 hvcurveto
          350 47 rmoveto
          hintmask 01101111
          69 6 25 32 34 hhcurveto
          38 11 -46 -55 hvcurveto
          endchar
        </CharString>
        <CharString name="ogonek">
          -210 87 hstem
          214 99 vstem
          214 -119 rmoveto
          -23 callsubr
          30 17 28 37 29 hvcurveto
          -83 hlineto
          -26 -18 -44 -44 -59 vvcurveto
          endchar
        </CharString>
        <CharString name="ograve">
          -24 callsubr
          hstem
          58 callgsubr
          vstem
          -105 callsubr
          77 326 10 callsubr
        </CharString>
        <CharString name="ohorn">
          -44 callgsubr
          52 callgsubr
          -82 114 hintmask 11110000
          300 107 -45 callgsubr
          hintmask 11101000
          -86 callsubr
          hintmask 11110000
          -9 callsubr
          hintmask 11101000
          -10 callgsubr
        </CharString>
        <CharString name="ohungarumlaut">
          -44 callgsubr
          65 151 hstem
          58 callgsubr
          vstem
          -105 callsubr
          -23 325 6 callsubr
        </CharString>
        <CharString name="omacron">
          -44 callgsubr
          84 93 61 callsubr
          -36 276 -36 151 hintmask 11110100
          -105 callsubr
          hintmask 11101000
          -36 344 -17 callsubr
        </CharString>
        <CharString name="one">
          0 119 367 147 callgsubr
          516 147 callsubr
          -367 180 callsubr
        </CharString>
        <CharString name="one.dnom">
          212 100 133 callsubr
          hmoveto
          46 callsubr
        </CharString>
        <CharString name="one.numr">
          536 99 133 callsubr
          115 callsubr
          -33 -20 -21 -9 -51 -6 rrcurveto
          -64 81 vlineto
          endchar
        </CharString>
        <CharString name="one.onum">
          0 119 310 147 callgsubr
          459 147 callsubr
          -310 180 callsubr
        </CharString>
        <CharString name="one.subs">
          42 100 133 callsubr
          -170 rmoveto
          46 callsubr
        </CharString>
        <CharString name="one.sups">
          652 100 133 callsubr
          440 rmoveto
          46 callsubr
        </CharString>
        <CharString name="oneeighth">
          -12 68 198 70 212 134 callgsubr
          37 94 -85 94 63 94 -85 94 hintmask 1101100000000000
          150 115 callsubr
          hintmask 0010100000000000
          134 callsubr
          hintmask 1001110010000000
          -64 81 vlineto
          -58 -508 -74 callsubr
        </CharString>
        <CharString name="onehalf">
          0 87 151 86 212 134 callgsubr
          42 261 -114 102 hintmask 11011000
          150 115 callsubr
          hintmask 11101000
          134 callsubr
          hintmask 11011100
          34 callgsubr
          -284 -551 rmoveto
          hintmask 11011010
          261 87 -93 hlineto
          42 39 39 171 callgsubr
          -37 vhcurveto
          61 -56 rlineto
          23 17 20 12 19 hhcurveto
          28 16 -16 -25 hvcurveto
          hintmask 11011100
          -34 -65 -54 -82 -54 vhcurveto
          endchar
        </CharString>
        <CharString name="onequarter">
          0 127 -66 66 121 64 224 134 callgsubr
          191 94 hintmask 10101110
          583 62 callsubr
          -134 262 rmoveto
          81 -212 107 311 -83 hlineto
          hintmask 10110110
          134 callsubr
          314 -473 127 callsubr
          -51 185 -134 hlineto
          hintmask 01101110
          -120 -200 rlineto
          -51 160 vlineto
          hintmask 10101110
          -61 94 vlineto
          hintmask 01101110
          61 51 vlineto
          endchar
        </CharString>
        <CharString name="onethird">
          -12 79 64 55 59 79 212 134 callgsubr
          189 104 -91 104 hintmask 11101100
          150 115 callsubr
          hintmask 11110100
          134 callsubr
          hintmask 11101101
          34 callgsubr
          -290 -521 rmoveto
          -35 151 callsubr
          59 37 -19 26 -48 13 hvcurveto
          hintmask 11101110
          27 callsubr
          hintmask 11101101
          129 callgsubr
        </CharString>
        <CharString name="ordfeminine">
          -53 callgsubr
        </CharString>
        <CharString name="ordfeminine.a">
          -46 callgsubr
        </CharString>
        <CharString name="ordmasculine">
          -12 callsubr
        </CharString>
        <CharString name="oslash">
          -12 114 292 114 hstem
          58 callgsubr
          vstem
          395 309 rmoveto
          5 -18 2 -21 -22 vvcurveto
          -86 -34 -60 -68 -24 -20 8 13 -16 vhcurveto
          -35 65 rmoveto
          -5 18 -2 20 22 vvcurveto
          86 34 60 68 24 19 -7 -13 16 vhcurveto
          179 106 rmoveto
          -55 43 -45 -54 rlineto
          26 -41 -48 13 -49 hhcurveto
          -131 -122 -95 -165 -73 24 -59 37 -43 hvcurveto
          -46 -56 55 -42 44 53 rlineto
          -26 41 48 -14 50 hhcurveto
          131 122 95 165 73 -24 59 -38 44 hvcurveto
          endchar
        </CharString>
        <CharString name="otilde">
          -44 callgsubr
          67 91 -91 143 52 callgsubr
          hintmask 11011100
          -105 callsubr
          -69 327 23 callgsubr
          hintmask 11101100
          65 callsubr
          hintmask 11011100
          14 callgsubr
          hintmask 11101100
          32 callsubr
          hintmask 11011100
          139 callgsubr
          2 callgsubr
        </CharString>
        <CharString name="p">
          106 callgsubr
          -12 -20 hstemhm
          135 callsubr
          hintmask 11011100
          214 42 rmoveto
          -35 36 44 -19 44 hhcurveto
          111 104 98 170 hvcurveto
          hintmask 11101100
          153 -75 99 -124 -53 -55 -26 -36 -40 vhcurveto
          -3 hlineto
          hintmask 11011100
          -11 50 rlineto
          -120 -680 147 145 hlineto
          180 vmoveto
          hintmask 11101100
          127 callgsubr
          -55 hvcurveto
          hintmask 11011100
          -25 -32 9 24 -28 hvcurveto
          endchar
        </CharString>
        <CharString name="p.sups">
          252 84 177 84 hstem
          154 104 113 107 vstem
          254 286 rmoveto
          -22 25 26 -12 30 hhcurveto
          74 69 65 113 100 -50 67 -83 -35 -35 -18 -22 -27 hvcurveto
          -2 hlineto
          -7 32 rlineto
          -85 -449 104 95 hlineto
          120 vmoveto
          64 callgsubr
        </CharString>
        <CharString name="paragraph">
          652 -20 hstem
          48 280 52 146 vstem
          380 -80 rmoveto
          146 732 -146 hlineto
          -52 hmoveto
          -42 hlineto
          -130 -108 -55 -168 -153 109 -79 131 hvcurveto
          40 hlineto
          endchar
        </CharString>
        <CharString name="parenleft">
          -179 914 hstem
          181 123 vstem
          392 -179 rmoveto
          82 65 rlineto
          -119 116 -51 118 158 vvcurveto
          158 51 118 119 116 vhcurveto
          -82 65 rlineto
          -130 -115 -81 -154 -188 vvcurveto
          -188 81 -154 130 -115 vhcurveto
          endchar
        </CharString>
        <CharString name="parenleft.dnom">
          -89 91 callsubr
          166 -18 callsubr
        </CharString>
        <CharString name="parenleft.numr">
          173 91 callsubr
          427 rmoveto
          -105 40 -75 68 -74 vhcurveto
          79 48 rlineto
          -54 63 -29 70 73 vvcurveto
          74 29 70 54 63 vhcurveto
          -79 48 rlineto
          -68 -75 -40 -74 -106 vvcurveto
          endchar
        </CharString>
        <CharString name="parenleft.subs">
          -259 91 callsubr
          -4 -18 callsubr
        </CharString>
        <CharString name="parenleft.sups">
          351 91 callsubr
          606 -18 callsubr
        </CharString>
        <CharString name="parenright">
          -179 914 hstem
          296 123 vstem
          208 -179 rmoveto
          130 115 81 154 188 vvcurveto
          188 -81 154 -130 115 vhcurveto
          -82 -65 rlineto
          119 -116 51 -118 -158 vvcurveto
          -158 -51 -118 -119 -116 vhcurveto
          endchar
        </CharString>
        <CharString name="parenright.dnom">
          -89 90 callgsubr
          166 -18 callgsubr
        </CharString>
        <CharString name="parenright.numr">
          173 90 callgsubr
          427 rmoveto
          106 -40 74 -68 75 vhcurveto
          -79 -48 rlineto
          54 -63 29 -70 -74 vvcurveto
          -73 -29 -70 -54 -63 vhcurveto
          79 -48 rlineto
          68 74 40 75 105 vvcurveto
          endchar
        </CharString>
        <CharString name="parenright.subs">
          -259 90 callgsubr
          -4 -18 callgsubr
        </CharString>
        <CharString name="parenright.sups">
          351 90 callgsubr
          606 -18 callgsubr
        </CharString>
        <CharString name="partialdiff">
          -12 119 198 112 136 119 hstem
          60 135 207 139 vstem
          272 107 rmoveto
          -41 -36 29 58 75 41 36 56 36 35 -16 -44 28 hvcurveto
          -102 -21 -48 -36 -50 hhcurveto
          -82 401 rmoveto
          29 31 32 16 39 hhcurveto
          79 31 -68 -112 hvcurveto
          -6 0 -6 -5 vvcurveto
          39 -33 -48 22 -47 hhcurveto
          -125 -89 -95 -137 -121 89 -76 107 167 118 152 229 182 -78 121 -155 -70 -58 -27 -47 -54 hvcurveto
          endchar
        </CharString>
        <CharString name="percent">
          -12 79 178 79 -12 78 178 79 hstemhm
          24 101 95 101 -42 101 95 101 hintmask 10111101
          172 312 rmoveto
          85 64 66 103 103 -64 63 -85 -84 -64 -63 -103 -103 64 -66 84 hvcurveto
          78 vmoveto
          -25 -22 23 68 69 22 18 25 25 23 -18 -69 -68 -23 -23 -25 hvcurveto
          -79 -362 rmoveto
          162 199 -51 47 -187 -173 rlineto
          492 523 rmoveto
          -162 -199 51 -48 186 174 rlineto
          hintmask 11000011
          -156 -563 rmoveto
          84 64 66 104 103 -64 63 -84 -85 -64 -63 -103 -104 64 -66 85 hvcurveto
          79 vmoveto
          -25 -23 23 68 68 23 19 25 25 22 -19 -68 -68 -22 -23 -25 hvcurveto
          endchar
        </CharString>
        <CharString name="period">
          -12 125 callgsubr
          105 rmoveto
          102 callsubr
        </CharString>
        <CharString name="period.dnom">
          -8 69 callsubr
          56 28 callgsubr
        </CharString>
        <CharString name="period.numr">
          254 69 callsubr
          317 rmoveto
          -36 27 -27 36 36 27 27 36 37 -27 29 -36 -36 -27 -29 -37 vhcurveto
          endchar
        </CharString>
        <CharString name="period.subs">
          -178 69 callsubr
          -114 28 callgsubr
        </CharString>
        <CharString name="period.sups">
          432 69 callsubr
          496 28 callgsubr
        </CharString>
        <CharString name="periodcentered">
          236 125 callgsubr
          354 38 callgsubr
          endchar
        </CharString>
        <CharString name="perthousand">
          -12 62 134 63 141 63 134 62 hstemhm
          31 84 87 84 29 85 87 84 hintmask 11111101
          158 388 124 callsubr
          -55 -47 -80 -80 55 -52 72 hvcurveto
          63 vmoveto
          -22 -21 17 52 52 21 13 22 23 21 -13 -52 -52 -21 -17 -23 hvcurveto
          386 62 rmoveto
          -451 -198 19 -44 470 148 rlineto
          -424 -431 124 callsubr
          -55 -47 -80 -80 55 -52 72 hvcurveto
          62 vmoveto
          -22 -21 18 52 51 21 13 22 23 21 -12 -52 -52 -21 -18 -23 hvcurveto
          hintmask 11000011
          285 -62 124 callsubr
          -56 -47 -80 -80 56 -52 72 hvcurveto
          62 vmoveto
          -23 -20 18 52 51 20 13 23 23 21 -12 -52 -52 -21 -18 -23 hvcurveto
          endchar
        </CharString>
        <CharString name="peseta">
          21 -21 215 92 73 91 72 92 hstem
          89 139 vstem
          228 307 rmoveto
          73 143 vlineto
          -46 -14 -37 -27 -58 hhcurveto
          236 vmoveto
          58 37 -22 -50 13 hvcurveto
          -142 72 hlineto
          343 -72 rmoveto
          -62 hlineto
          121 -20 -99 43 -118 hhcurveto
          -183 -165 hlineto
          -68 -5 rlineto
          -85 68 -380 139 215 44 vlineto
          117 101 51 114 20 hvcurveto
          61 hlineto
          endchar
        </CharString>
        <CharString name="pi">
          -12 119 273 116 hstem
          110 137 114 139 vstem
          361 158 rmoveto
          -103 37 -67 111 34 25 7 8 17 vhcurveto
          -18 108 rlineto
          -2 -10 -6 -2 -7 hhcurveto
          -29 -15 11 34 23 0 118 6 87 hvcurveto
          80 116 -498 hlineto
          -74 -6 rlineto
          -110 96 vlineto
          -110 -7 -135 -18 -135 vhcurveto
          147 -9 rlineto
          9 132 6 139 118 vvcurveto
          119 hlineto
          -1 -83 -4 -110 -29 vvcurveto
          endchar
        </CharString>
        <CharString name="plus">
          278 104 hstem
          246 108 vstem
          246 94 rmoveto
          108 184 176 104 -176 184 -108 -184 -176 -104 176 hlineto
          endchar
        </CharString>
        <CharString name="plusminus">
          0 104 190 104 hstem
          246 108 vstem
          246 158 rmoveto
          108 136 176 104 -176 168 -108 -168 -176 -104 176 hlineto
          -176 -294 rmoveto
          138 callsubr
          endchar
        </CharString>
        <CharString name="product">
          507 128 hstem
          25 147 256 147 vstem
          25 -120 rmoveto
          147 627 256 -627 147 755 -550 hlineto
          endchar
        </CharString>
        <CharString name="q">
          106 callgsubr
          -12 -20 -27 callgsubr
          hintmask 11101100
          47 248 rmoveto
          -162 83 -98 126 47 49 24 33 35 vhcurveto
          -6 -76 rlineto
          -153 147 vlineto
          hintmask 11011100
          680 -115 vlineto
          hintmask 11101100
          -12 -51 rlineto
          -4 hlineto
          44 -41 -41 19 -56 hhcurveto
          -108 -104 -98 -162 hvcurveto
          151 2 rmoveto
          94 46 44 54 29 27 -9 -24 27 vhcurveto
          -201 vlineto
          -33 -26 -28 -13 -33 hhcurveto
          -61 -35 44 98 hvcurveto
          endchar
        </CharString>
        <CharString name="q.sups">
          30 callgsubr
          128 424 rmoveto
          -107 55 -65 85 30 32 15 20 23 vhcurveto
          -4 -49 rlineto
          -98 103 449 -81 vlineto
          -8 -34 rlineto
          -3 hlineto
          29 -27 -26 13 27 callgsubr
        </CharString>
        <CharString name="question">
          -12 202 -181 -21 575 119 hstemhm
          186 200 -30 141 hintmask 01101000
          218 255 rmoveto
          128 hlineto
          -12 116 163 17 131 vvcurveto
          110 -90 53 -115 -79 -67 -37 -53 -48 vhcurveto
          82 -75 rlineto
          27 30 31 19 41 hhcurveto
          42 32 -21 -42 -74 -160 -37 22 -134 hvcurveto
          hintmask 10110000
          -32 -165 98 callsubr
        </CharString>
        <CharString name="questiondown">
          -186 119 373 202 0 -20 hstemhm
          103 141 -29 199 hintmask 10110000
          383 241 rmoveto
          -129 hlineto
          12 -116 -163 -17 -131 vvcurveto
          -110 90 -53 115 79 67 37 54 48 vhcurveto
          -81 74 rlineto
          -27 -31 -30 -19 -42 hhcurveto
          -42 -32 22 41 74 160 37 -21 134 hvcurveto
          hintmask 11001000
          31 165 rmoveto
          60 -42 42 -58 -57 -42 -42 -60 -59 42 -41 57 58 42 41 59 vhcurveto
          endchar
        </CharString>
        <CharString name="quotedbl">
          303 382 hstem
          84.5 165 101 165 vstem
          122 303 42 callsubr
          301 -237 42 callsubr
          endchar
        </CharString>
        <CharString name="quotedblbase">
          -17 193 hstem
          180 102 165 101 vstem
          108 -231 -5 callsubr
          54 6 7 1 1 6 vhcurveto
          -4 -62 -38 -45 -69 -32 rrcurveto
          305 -77 -5 callsubr
          53 7 6 1 2 8 vhcurveto
          -5 -63 -38 -45 -69 -32 rrcurveto
          endchar
        </CharString>
        <CharString name="quotedblleft">
          290 192 hstem
          51 101 165 101 vstem
          226 174 callsubr
          -31 callgsubr
          228 78 89 callsubr
          -31 callgsubr
          endchar
        </CharString>
        <CharString name="quotedblright">
          504 193 hstem
          181 101 165 101 vstem
          108 290 -5 callsubr
          54 6 7 1 1 7 vhcurveto
          -5 -62 -38 -45 -69 -31 rrcurveto
          305 -78 -5 callsubr
          53 7 6 1 2 8 192 callgsubr
        </CharString>
        <CharString name="quoteleft">
          -7 callsubr
        </CharString>
        <CharString name="quoteright">
          -7 callgsubr
        </CharString>
        <CharString name="quotesinglbase">
          -231 407 -193 193 hstemhm
          314 101 hintmask 10100000
          241 -231 rmoveto
          116 53 58 85 109 vvcurveto
          hintmask 01100000
          33 callsubr
          54 6 7 1 1 7 vhcurveto
          -5 -62 -38 -45 -69 -32 rrcurveto
          endchar
        </CharString>
        <CharString name="quotesingle">
          303 382 hstem
          217.5 165 vstem
          255 303 42 callsubr
          endchar
        </CharString>
        <CharString name="r">
          21 70 callgsubr
          116 147 hintmask 10101000
          41 callgsubr
          hintmask 11001000
          -14 callsubr
          hintmask 10101000
          -55 callgsubr
          hintmask 10011000
          -12 108 120 callgsubr
          endchar
        </CharString>
        <CharString name="r.sups">
          506 91 hstem
          214 104 vstem
          214 260 rmoveto
          104 168 hlineto
          58 25 39 20 34 hhcurveto
          25 13 -3 -6 21 hvcurveto
          20 86 rlineto
          8 -18 -16 6 -29 hhcurveto
          -47 -45 -26 -54 -29 hvcurveto
          -3 hlineto
          -8 72 rlineto
          -86 hlineto
          endchar
        </CharString>
        <CharString name="racute">
          -33 callsubr
          381 68 callsubr
        </CharString>
        <CharString name="radical">
          -80 144 -144 900 hstemhm
          33 568 hintmask 01100000
          207 440 rmoveto
          -174 -71 26 -69 74 31 rlineto
          hintmask 10100000
          150 -411 rlineto
          102 hlineto
          216 900 rlineto
          -98 hlineto
          -157 -674 -6 -27 -5 -28 -4 -27 rlinecurve
          -4 hlineto
          -6 27 -7 28 -8 27 rrcurveto
          endchar
        </CharString>
        <CharString name="rcaron">
          -33 callsubr
          161 78 -70 callgsubr
        </CharString>
        <CharString name="registered">
          311 49 116 40 54 43 53 49 hstem
          101 54 63 58 51 61 55 54 vstem
          299 311 rmoveto
          110 88 84 118 118 -88 84 -110 -109 -89 -84 -118 -118 89 -84 109 hvcurveto
          49 vmoveto
          -84 -60 60 93 93 60 60 84 84 60 -60 -93 -93 -60 -60 -84 hvcurveto
          -81 56 rmoveto
          58 60 29 hlineto
          30 -60 rlineto
          60 hlineto
          -42 77 rlineto
          24 11 11 20 23 vvcurveto
          45 -34 21 -47 vhcurveto
          -89 hlineto
          58 -97 rmoveto
          54 21 vlineto
          20 10 -12 -14 -15 -10 -13 -21 hvcurveto
          endchar
        </CharString>
        <CharString name="ring">
          -2 callsubr
        </CharString>
        <CharString name="s">
          -12 93 callgsubr
          hstem
          84 146 164 146 vstem
          -101 callgsubr
          endchar
        </CharString>
        <CharString name="s.sups">
          252 76 192 77 hstem
          166 103 88 103 vstem
          145 299 rmoveto
          -27 40 60 -20 55 hhcurveto
          104 56 47 60 60 -61 23 -54 16 hvcurveto
          -41 11 -35 9 19 vvcurveto
          15 14 8 34 32 29 -10 -17 28 vhcurveto
          47 61 rlineto
          21 -34 -46 22 -57 hhcurveto
          -93 -57 -43 -61 -55 60 -27 52 -16 hvcurveto
          41 -12 38 -10 -20 vvcurveto
          -16 -16 -9 -39 -40 -34 12 23 -36 vhcurveto
          endchar
        </CharString>
        <CharString name="sacute">
          -12 93 callgsubr
          66 167 hstem
          84 146 164 146 vstem
          -101 callgsubr
          351 585 -37 callgsubr
        </CharString>
        <CharString name="scaron">
          -12 93 callgsubr
          66 167 hstem
          84 146 164 146 vstem
          -101 callgsubr
          132 418 rmoveto
          123 35 callsubr
        </CharString>
        <CharString name="scircumflex">
          -12 93 callgsubr
          66 167 hstem
          84 146 164 146 vstem
          -101 callgsubr
          31 418 82 callsubr
        </CharString>
        <CharString name="section">
          -84 108 -3 -21 581 109 hstemhm
          71 124 -71 132 80 132 -63 124 hintmask 01110010
          195 337 rmoveto
          24 13 20 24 14 vhcurveto
          79 -39 94 -21 -63 vvcurveto
          -27 -12 -18 -24 -15 vhcurveto
          -78 42 -96 20 63 vvcurveto
          289 288 rmoveto
          32 -42 -63 33 -77 hhcurveto
          hintmask 01101010
          -112 -66 -63 -90 -34 11 -27 18 -22 hvcurveto
          hintmask 10110100
          -50 -30 -32 -48 -50 -188 265 7 -78 vvcurveto
          -25 -19 -18 -41 -40 -38 18 33 -33 vhcurveto
          hintmask 01110010
          -84 -75 rlineto
          hintmask 10110100
          -57 45 77 -27 73 hhcurveto
          125 67 68 90 31 -9 25 -14 21 hvcurveto
          hintmask 01101010
          54 32 30 43 58 181 -273 6 71 vvcurveto
          25 18 14 36 36 39 -21 -27 31 vhcurveto
          endchar
        </CharString>
        <CharString name="semicolon">
          10 205 96 235 hstemhm
          184 232 -104 117 hintmask 01100000
          300 311 rmoveto
          69 47 52 66 65 -47 52 -69 -69 -47 -52 -65 -66 47 -52 69 hvcurveto
          -81 -528 rmoveto
          hintmask 10010000
          138 42 72 91 127 vvcurveto
          52 callsubr
        </CharString>
        <CharString name="seven">
          21 -21 511 124 hstem
          193 148 vstem
          193 hmoveto
          148 hlineto
          12 248 25 119 161 178 rrcurveto
          90 -477 -124 319 vlineto
          -133 -167 -43 -132 -12 -212 rrcurveto
          endchar
        </CharString>
        <CharString name="seven.dnom">
          225 29 callsubr
          hmoveto
          -11 callgsubr
        </CharString>
        <CharString name="seven.numr">
          548 29 callsubr
          324 rmoveto
          112 hlineto
          hintmask 11000000
          5 105 15 65 76 86 rrcurveto
          55 -264 -87 vlineto
          hintmask 10100000
          146 hlineto
          -56 -79 -28 -55 -6 -90 rrcurveto
          endchar
        </CharString>
        <CharString name="seven.onum">
          455 123 hstem
          193 148 vstem
          193 -78 rmoveto
          148 hlineto
          11 257 26 127 161 182 rrcurveto
          90 -477 -123 319 vlineto
          -134 -172 -42 -143 -12 -218 rrcurveto
          endchar
        </CharString>
        <CharString name="seven.subs">
          55 29 callsubr
          -170 rmoveto
          -11 callgsubr
        </CharString>
        <CharString name="seven.sups">
          665 29 callsubr
          440 rmoveto
          -11 callgsubr
        </CharString>
        <CharString name="seveneighths">
          -12 68 198 70 224 87 hstemhm
          50 264 -207 111 76 94 -85 94 63 94 -85 94 hintmask 1110110010000000
          107 324 rmoveto
          111 hlineto
          hintmask 0011000000000000
          5 105 15 65 76 86 rrcurveto
          55 -264 -87 vlineto
          hintmask 0010100000000000
          146 hlineto
          hintmask 1110110010000000
          -56 -79 -28 -55 -5 -90 rrcurveto
          -15 -296 -74 callsubr
        </CharString>
        <CharString name="six">
          175 callgsubr
          60 136 215 134 vstem
          314 98 rmoveto
          -50 -49 32 101 -15 hvcurveto
          45 39 41 17 37 hhcurveto
          56 38 -27 -65 -72 -46 -31 -51 hvcurveto
          222 473 rmoveto
          41 -43 -69 35 -90 hhcurveto
          -140 -134 -107 -237 -223 127 -92 130 122 106 81 132 134 -85 62 -111 -48 -60 -25 -44 -45 hvcurveto
          149 6 67 51 78 hhcurveto
          42 43 -21 -24 27 hvcurveto
          endchar
        </CharString>
        <CharString name="six.dnom">
          -12 79 63 64 51 79 hstem
          162 96 85 94 vstem
          307 67 rmoveto
          -18 -22 9 35 -7 hvcurveto
          13 14 15 6 16 hhcurveto
          24 14 -11 -20 -20 -14 -12 -22 hvcurveto
          128 216 rmoveto
          24 -30 -36 17 -43 hhcurveto
          -108 -56 -79 -90 -98 55 -69 95 72 53 50 62 61 -39 33 -61 -32 -26 -11 -18 -21 hvcurveto
          45 5 20 35 51 hhcurveto
          24 18 -9 -14 17 hvcurveto
          endchar
        </CharString>
        <CharString name="six.numr">
          312 78 64 63 106 callsubr
          390 rmoveto
          -18 -22 10 36 -8 hvcurveto
          11 15 16 7 15 hhcurveto
          24 13 -11 -20 -21 -13 -12 -22 hvcurveto
          127 216 rmoveto
          25 -29 -36 16 -44 hhcurveto
          -107 -57 -79 -89 -99 56 -68 94 72 53 49 63 61 -39 32 -60 -32 -26 -10 -17 -21 hvcurveto
          44 5 19 34 51 hhcurveto
          24 19 -8 -14 17 hvcurveto
          endchar
        </CharString>
        <CharString name="six.onum">
          175 callgsubr
          61 135 216 134 vstem
          315 98 rmoveto
          -50 -49 32 100 -16 hvcurveto
          46 39 41 17 37 hhcurveto
          57 38 -27 -65 -72 -47 -31 -50 hvcurveto
          222 473 rmoveto
          41 -44 -69 35 -90 hhcurveto
          -140 -133 -107 -237 -223 126 -92 131 122 106 81 132 134 -86 62 -111 -47 -60 -26 -44 -46 hvcurveto
          150 6 68 51 77 hhcurveto
          43 43 -21 -24 26 hvcurveto
          endchar
        </CharString>
        <CharString name="six.subs">
          -182 79 63 64 106 callsubr
          -103 -29 callsubr
        </CharString>
        <CharString name="six.sups">
          428 79 63 64 106 callsubr
          507 -29 callsubr
        </CharString>
        <CharString name="slash">
          -160 870 hstem
          74 452 vstem
          526 710 rmoveto
          -123 hlineto
          -329 -870 rlineto
          123 hlineto
          endchar
        </CharString>
        <CharString name="slash.frac">
          28 596 hstem
          17 566 vstem
          92 28 -92 callgsubr
          endchar
        </CharString>
        <CharString name="space">
          endchar
        </CharString>
        <CharString name="space.frac">
          endchar
        </CharString>
        <CharString name="sterling">
          0 124 147 91 166 119 hstemhm
          135 139 -89 127 hintmask 11101000
          258 124 rmoveto
          4 vlineto
          38 36 16 31 48 vvcurveto
          9 -1 10 -1 9 vhcurveto
          146 91 hlineto
          hintmask 11110000
          -169 hlineto
          -7 24 -6 24 24 62 callgsubr
          -26 9 -27 10 -27 hvcurveto
          -84 -5 rlineto
          -86 vlineto
          hintmask 11101000
          112 hlineto
          2 -9 1 -9 -9 vvcurveto
          -71 -49 -55 -69 -27 vhcurveto
          -91 483 124 vlineto
          endchar
        </CharString>
        <CharString name="summation">
          -120 124 507 124 hstem
          59 499 vstem
          59 -33 rmoveto
          -87 499 124 -317 4 vlineto
          174 249 -167 250 rlineto
          4 286 124 -465 -87 vlineto
          196 -291 rlineto
          endchar
        </CharString>
        <CharString name="t">
          -12 92 callsubr
          hstem
          174 147 vstem
          -95 callsubr
          endchar
        </CharString>
        <CharString name="t.sups">
          252 81 175 81 hstem
          219 105 vstem
          219 397 rmoveto
          -87 39 -58 107 41 35 9 9 26 vhcurveto
          -18 74 rlineto
          -7 -17 -19 -4 -22 hhcurveto
          -46 -21 17 48 hvcurveto
          110 129 81 -129 86 -87 vlineto
          -13 -86 -74 -4 rlineto
          -77 69 vlineto
          endchar
        </CharString>
        <CharString name="tcaron">
          -12 92 callsubr
          52 80 hstem
          174 147 66.5 90.5 vstem
          -95 callsubr
          279 167 rmoveto
          24 153 2 129 callsubr
        </CharString>
        <CharString name="thorn">
          106 callgsubr
          193 -20 hstem
          135 callsubr
          vstem
          219 -39 rmoveto
          -3 81 rlineto
          -31 34 40 -23 49 hhcurveto
          108 106 98 170 153 -76 99 -123 -50 -49 -21 -36 -40 hvcurveto
          4 76 rlineto
          174 -147 -885 147 vlineto
          325 vmoveto
          201 vlineto
          32 31 30 14 30 hhcurveto
          64 28 -45 -89 -102 -45 -44 -53 -25 -33 9 24 -27 hvcurveto
          endchar
        </CharString>
        <CharString name="three">
          -12 119 166 104 155 115 hstemhm
          363 147 -126 147 hintmask 11101000
          42 78 rmoveto
          173 callgsubr
          67 118 82 -62 52 -80 21 hvcurveto
          4 vlineto
          hintmask 11110000
          76 29 45 46 66 vvcurveto
          111 -96 63 101 callsubr
          -26 -44 -51 -46 -34 -125 hvcurveto
          -104 vlineto
          hintmask 11101000
          149 43 -35 -56 -48 -50 -27 -69 -58 -55 27 37 -42 hvcurveto
          endchar
        </CharString>
        <CharString name="three.dnom">
          -12 79 64 55 59 55 callgsubr
          30 -75 callgsubr
        </CharString>
        <CharString name="three.numr">
          312 78 64 56 58 55 callgsubr
          353 rmoveto
          -34 47 48 -7 41 hhcurveto
          73 60 41 58 37 -19 26 -47 13 hvcurveto
          hintmask 11110000
          40 14 14 21 37 vvcurveto
          53 -53 35 -66 -54 86 callgsubr
          -38 hvcurveto
          -56 vlineto
          hintmask 11101000
          51 22 -11 -24 -19 -19 -10 -23 -28 -33 14 15 -21 hvcurveto
          endchar
        </CharString>
        <CharString name="three.onum">
          -90 118 -7 -21 206 104 165 115 hstemhm
          363 147 -126 147 hintmask 01110100
          42 hmoveto
          hintmask 10110100
          173 callgsubr
          70 123 86 -62 50 -80 22 hvcurveto
          4 vlineto
          hintmask 01111000
          76 30 45 49 69 vvcurveto
          111 -96 66 101 callsubr
          -29 -44 -56 -46 -36 -125 hvcurveto
          -104 vlineto
          hintmask 10110100
          149 43 -34 -60 -54 -50 -30 -69 -58 -55 28 37 -42 hvcurveto
          endchar
        </CharString>
        <CharString name="three.subs">
          -182 79 64 55 59 55 callgsubr
          -140 -75 callgsubr
        </CharString>
        <CharString name="three.sups">
          428 79 64 55 59 55 callgsubr
          470 -75 callgsubr
        </CharString>
        <CharString name="threeeighths">
          -12 68 198 70 -12 78 64 56 58 79 hstemhm
          191 104 -92 105 -14 94 -85 94 63 94 -85 94 hintmask 1011100100100000
          38 353 rmoveto
          -34 47 48 -7 41 hhcurveto
          hintmask 0010001000000000
          73 61 41 58 37 -20 26 -47 13 hvcurveto
          hintmask 0001110000000000
          40 14 14 21 37 vvcurveto
          53 -53 35 -65 -55 86 callgsubr
          -37 hvcurveto
          -56 vlineto
          hintmask 0011001000000000
          50 22 -11 -24 -19 -18 -10 -23 -28 -34 14 15 -21 -78 callsubr
        </CharString>
        <CharString name="threequarters">
          0 127 -66 66 121 64 0 78 64 56 58 79 hstemhm
          190 104 -91 104 142 93 hintmask 1001111010000000
          590 62 callsubr
          -124 269 rmoveto
          13 20 23 12 23 hhcurveto
          24 14 -10 -16 -24 -23 -8 -37 hvcurveto
          -56 vlineto
          hintmask 1001110110000000
          50 23 -11 -24 -19 -19 -10 -23 -28 -34 14 15 -21 hvcurveto
          -41 -66 rlineto
          -34 151 callsubr
          58 37 -19 26 -48 13 hvcurveto
          hintmask 1010111010000000
          41 14 13 21 37 vvcurveto
          53 -53 35 -65 -55 -47 -17 -24 -31 vhcurveto
          341 -479 127 callsubr
          -52 185 -133 hlineto
          hintmask 0101111010000000
          -120 -200 rlineto
          -51 160 vlineto
          hintmask 1001111010000000
          -61 93 vlineto
          hintmask 0101111010000000
          61 52 vlineto
          endchar
        </CharString>
        <CharString name="tilde">
          -29 callgsubr
        </CharString>
        <CharString name="trademark">
          425 86 62 103 -87 87 hstemhm
          66 96 113 84 151 84 hintmask 10111100
          275 362 rmoveto
          84 96 hlineto
          -11 115 2 callsubr
          54 -148 rlineto
          58 hlineto
          hintmask 11011100
          76 callgsubr
          hintmask 10111100
          -21 71 -34 94 rlineto
          -103 hlineto
          -209 -314 rmoveto
          96 227 78 87 -253 -87 79 hlineto
          endchar
        </CharString>
        <CharString name="triagdn">
          19 524 hstem
          23 554 vstem
          298 19 rmoveto
          4 hlineto
          275 522 rlineto
          2 -554 -2 vlineto
          endchar
        </CharString>
        <CharString name="triagup">
          21 524 hstem
          23 554 vstem
          23 21 103 callsubr
        </CharString>
        <CharString name="two">
          0 124 408 142 callgsubr
          -151 hlineto
          -33 -46 -4 -4 -36 hvcurveto
          123 108 110 114 107 vvcurveto
          122 -91 80 -133 -98 -63 -34 -67 -66 vhcurveto
          79 -79 191 callsubr
          -62 -91 -122 -108 -182 -153 hvcurveto
          endchar
        </CharString>
        <CharString name="two.dnom">
          0 87 151 86 hstemhm
          171 260 -114 103 hintmask 10100000
          171 hmoveto
          260 87 hlineto
          hintmask 11010000
          -92 hlineto
          41 39 40 171 callgsubr
          -38 vhcurveto
          62 -56 rlineto
          23 17 20 12 18 hhcurveto
          29 15 -16 -25 hvcurveto
          hintmask 10100000
          -34 -64 -54 -82 -54 vhcurveto
          endchar
        </CharString>
        <CharString name="two.numr">
          324 86 152 85 86 callsubr
          324 rmoveto
          hintmask 11010000
          261 86 -93 hlineto
          42 39 40 44 46 vvcurveto
          67 -52 115 callgsubr
          62 -55 rlineto
          22 16 20 13 19 hhcurveto
          29 15 -17 -25 hvcurveto
          hintmask 10100000
          -34 -64 -53 -83 -54 vhcurveto
          endchar
        </CharString>
        <CharString name="two.onum">
          0 124 351 142 callgsubr
          -125 hlineto
          -33 -46 -4 -4 -36 hvcurveto
          118 86 89 87 97 vvcurveto
          124 -91 80 -133 -98 -63 -34 -66 -66 vhcurveto
          79 -80 191 callsubr
          -63 -75 -118 -100 -186 -119 hvcurveto
          endchar
        </CharString>
        <CharString name="two.subs">
          -170 87 151 86 86 callsubr
          -170 4 callgsubr
        </CharString>
        <CharString name="two.sups">
          440 87 151 86 86 callsubr
          440 4 callgsubr
        </CharString>
        <CharString name="twothirds">
          -12 79 64 55 59 79 0 86 152 85 hstemhm
          44 260 -113 102 153 104 -91 104 hintmask 1001110010000000
          44 324 rmoveto
          260 86 hlineto
          hintmask 1001101010000000
          -92 hlineto
          41 39 40 44 46 vvcurveto
          67 -51 115 callgsubr
          61 -55 rlineto
          22 17 20 13 18 hhcurveto
          29 16 -17 -25 hvcurveto
          hintmask 1001110010000000
          -34 -65 -53 -82 -54 vhcurveto
          48 -351 -92 callgsubr
          -290 -521 rmoveto
          -35 151 callsubr
          59 37 -19 26 -48 13 hvcurveto
          hintmask 1110101100000000
          27 callsubr
          hintmask 1101101010000000
          129 callgsubr
        </CharString>
        <CharString name="u">
          -12 172 callgsubr
          169 147 hintmask 01111000
          -57 callgsubr
          hintmask 10111000
          -326 vlineto
          -104 callgsubr
          hintmask 01111000
          -26 callgsubr
          hlineto
          endchar
        </CharString>
        <CharString name="u.sups">
          252 88 hstem
          144 104 104 104 vstem
          456 589 rmoveto
          -104 -216 hlineto
          -27 -21 -15 -6 -24 hhcurveto
          -33 -11 17 41 hvcurveto
          191 -104 -204 vlineto
          -81 32 -52 75 47 34 21 32 29 vhcurveto
          2 hlineto
          8 -45 rlineto
          85 hlineto
          endchar
        </CharString>
        <CharString name="uacute">
          -35 callsubr
          98 167 -27 callsubr
          hintmask 01111100
          -57 callgsubr
          hintmask 10111100
          -326 vlineto
          -104 callgsubr
          hintmask 01111100
          -26 callgsubr
          hlineto
          -72 22 callsubr
          endchar
        </CharString>
        <CharString name="ubreve">
          -35 callsubr
          98 81 hstemhm
          62 147 -61 82 131 82 -65 147 hintmask 01111001
          -57 callgsubr
          hintmask 10111001
          -326 vlineto
          -104 callgsubr
          hintmask 01110101
          -26 callgsubr
          hlineto
          -229 574 rmoveto
          hintmask 01110110
          99 45 38 callsubr
          -19 33 42 -6 hvcurveto
          -82 hlineto
          hintmask 01110101
          -81 3 143 callgsubr
        </CharString>
        <CharString name="ucircumflex">
          -35 callsubr
          98 167 -27 callsubr
          hintmask 01111100
          -57 callgsubr
          hintmask 10111100
          -326 vlineto
          -104 callgsubr
          hintmask 01111100
          -26 callgsubr
          hlineto
          -392 574 -36 callgsubr
          endchar
        </CharString>
        <CharString name="udieresis">
          -35 callsubr
          95 157 hstemhm
          62 147 -101 157 61 157 -105 147 hintmask 01111001
          -57 callgsubr
          hintmask 10111001
          -326 vlineto
          -104 callgsubr
          hintmask 01110101
          -26 callgsubr
          hlineto
          -338 571 112 callsubr
          hintmask 01111010
          218 98 callgsubr
        </CharString>
        <CharString name="ugrave">
          -35 callsubr
          98 167 -27 callsubr
          hintmask 01111100
          -57 callgsubr
          hintmask 10111100
          -326 vlineto
          -104 callgsubr
          hintmask 01111100
          -26 callgsubr
          hlineto
          -255 574 51 callsubr
        </CharString>
        <CharString name="uhorn">
          -12 172 callgsubr
          169 147 -17 114 hintmask 01110100
          493 604 -8 callgsubr
          hintmask 10111000
          -49 -326 hlineto
          -104 callgsubr
          hintmask 01111000
          -26 callgsubr
          450 hlineto
          hintmask 01110100
          54 16 43 37 65 -58 callsubr
        </CharString>
        <CharString name="uhungarumlaut">
          -35 callsubr
          97 151 -27 callsubr
          hintmask 01111100
          -57 callgsubr
          hintmask 10111100
          -326 vlineto
          -104 callgsubr
          hintmask 01111100
          -26 callgsubr
          hlineto
          -355 573 rmoveto
          90 hlineto
          96 151 156 callgsubr
          102 -151 rmoveto
          90 hlineto
          96 151 156 callgsubr
          endchar
        </CharString>
        <CharString name="umacron">
          -35 callsubr
          116 93 -27 callsubr
          hintmask 01111100
          -57 callgsubr
          hintmask 10111100
          -326 vlineto
          -104 callgsubr
          hintmask 01111100
          -26 callgsubr
          hlineto
          -367 592 -17 callsubr
        </CharString>
        <CharString name="underscore">
          -164 110 hstem
          60 480 vstem
          60 -54 rmoveto
          -110 480 110 vlineto
          endchar
        </CharString>
        <CharString name="uni00470303">
          56 callgsubr
          39 136 hstemhm
          44 152 -36 75 180 132 hintmask 11111010
          -102 callsubr
          349 381 rmoveto
          53 44 45 91 10 hvcurveto
          -74 hlineto
          -33 -8 -14 -12 -17 -30 -36 45 -54 hhcurveto
          hintmask 11110110
          -52 -45 -45 -91 -10 hvcurveto
          75 hlineto
          33 7 15 12 17 hhcurveto
          hintmask 11111010
          30 36 -45 53 hhcurveto
          endchar
        </CharString>
        <CharString name="uni00670303">
          -42 callsubr
          67 91 -91 143 -22 callgsubr
          166 129 -58 140 hintmask 1111001100010000
          -99 callgsubr
          hintmask 1111001001100000
          -91 callgsubr
          hintmask 1110101010100000
          8 -24 -28 4 -30 hhcurveto
          -112 -100 -61 -119 -58 29 -45 36 -24 hvcurveto
          -4 vlineto
          hintmask 1111001001100000
          -35 -24 -24 -36 -33 vvcurveto
          -42 23 -26 27 -17 vhcurveto
          -4 vlineto
          hintmask 1111001100010000
          -51 -25 -26 -34 -40 vvcurveto
          hintmask 1110101010100000
          -74 callgsubr
          -152 329 rmoveto
          76 hlineto
          40 9 12 13 22 hhcurveto
          hintmask 1111010010100000
          27 30 -53 49 hhcurveto
          hintmask 1111001010100000
          14 callgsubr
          hintmask 1111010010100000
          32 callsubr
          hintmask 1111001010100000
          139 callgsubr
          hintmask 1110101010100000
          2 callgsubr
        </CharString>
</ttFont>
